<?xml version="1.0" encoding="UTF-8" standalone="no"?>
<!DOCTYPE svg PUBLIC "-//W3C//DTD SVG 1.1//EN"
 "http://www.w3.org/Graphics/SVG/1.1/DTD/svg11.dtd">
<!-- Generated by graphviz version 2.40.1 (20161225.0304)
 -->
<!-- Title: libosp/array_utilities/array_utilities.h Pages: 1 -->
<svg width="210pt" height="102pt"
 viewBox="0.00 0.00 209.87 102.00" xmlns="http://www.w3.org/2000/svg" xmlns:xlink="http://www.w3.org/1999/xlink">
<g id="graph0" class="graph" transform="scale(1 1) rotate(0) translate(4 98)">
<title>libosp/array_utilities/array_utilities.h</title>
<polygon fill="#ffffff" stroke="transparent" points="-4,4 -4,-98 205.874,-98 205.874,4 -4,4"/>
<!-- Node1 -->
<g id="node1" class="node">
<title>Node1</title>
<polygon fill="#bfbfbf" stroke="#000000" points="44.1626,-65.5 44.1626,-93.5 147.98,-93.5 147.98,-65.5 44.1626,-65.5"/>
<text text-anchor="start" x="52.1626" y="-81.5" font-family="Helvetica,sans-Serif" font-size="10.00" fill="#000000">libosp/array_utilities</text>
<text text-anchor="middle" x="96.0713" y="-71.5" font-family="Helvetica,sans-Serif" font-size="10.00" fill="#000000">/array_utilities.h</text>
</g>
<!-- Node2 -->
<g id="node2" class="node">
<title>Node2</title>
<g id="a_node2"><a xlink:href="afc_8c.html" target="_top" xlink:title="libosp/afc/afc.c">
<polygon fill="#ffffff" stroke="#000000" points="0,-5.5 0,-23.5 82.1426,-23.5 82.1426,-5.5 0,-5.5"/>
<text text-anchor="middle" x="41.0713" y="-11.5" font-family="Helvetica,sans-Serif" font-size="10.00" fill="#000000">libosp/afc/afc.c</text>
</a>
</g>
</g>
<!-- Node1&#45;&gt;Node2 -->
<g id="edge1" class="edge">
<title>Node1&#45;&gt;Node2</title>
<path fill="none" stroke="#191970" d="M77.6691,-57.752C67.8164,-46.1078 56.2077,-32.3885 48.7495,-23.5743"/>
<polygon fill="#191970" stroke="#191970" points="75.0058,-60.0229 84.1371,-65.396 80.3495,-55.5013 75.0058,-60.0229"/>
</g>
<!-- Node3 -->
<g id="node3" class="node">
<title>Node3</title>
<g id="a_node3"><a xlink:href="osp__process_8c.html" target="_top" xlink:title="libosp/osp_process\l/osp_process.c">
<polygon fill="#ffffff" stroke="#000000" points="100.2686,-.5 100.2686,-28.5 201.874,-28.5 201.874,-.5 100.2686,-.5"/>
<text text-anchor="start" x="108.2686" y="-16.5" font-family="Helvetica,sans-Serif" font-size="10.00" fill="#000000">libosp/osp_process</text>
<text text-anchor="middle" x="151.0713" y="-6.5" font-family="Helvetica,sans-Serif" font-size="10.00" fill="#000000">/osp_process.c</text>
</a>
</g>
</g>
<!-- Node1&#45;&gt;Node3 -->
<g id="edge2" class="edge">
<title>Node1&#45;&gt;Node3</title>
<path fill="none" stroke="#191970" d="M114.4868,-57.7362C122.6245,-48.119 131.9577,-37.0888 139.1604,-28.5765"/>
<polygon fill="#191970" stroke="#191970" points="111.7931,-55.5013 108.0055,-65.396 117.1368,-60.0229 111.7931,-55.5013"/>
</g>
</g>
</svg>
