<?xml version="1.0" encoding="UTF-8" standalone="no"?>
<!DOCTYPE svg PUBLIC "-//W3C//DTD SVG 1.1//EN"
 "http://www.w3.org/Graphics/SVG/1.1/DTD/svg11.dtd">
<!-- Generated by graphviz version 2.40.1 (20161225.0304)
 -->
<!-- Title: libosp/common/constants.h Pages: 1 -->
<svg width="474pt" height="277pt"
 viewBox="0.00 0.00 474.16 277.00" xmlns="http://www.w3.org/2000/svg" xmlns:xlink="http://www.w3.org/1999/xlink">
<g id="graph0" class="graph" transform="scale(1 1) rotate(0) translate(4 273)">
<title>libosp/common/constants.h</title>
<polygon fill="#ffffff" stroke="transparent" points="-4,4 -4,-273 470.1585,-273 470.1585,4 -4,4"/>
<!-- Node1 -->
<g id="node1" class="node">
<title>Node1</title>
<polygon fill="#bfbfbf" stroke="#000000" points="156.1566,-250.5 156.1566,-268.5 293.3284,-268.5 293.3284,-250.5 156.1566,-250.5"/>
<text text-anchor="middle" x="224.7425" y="-256.5" font-family="Helvetica,sans-Serif" font-size="10.00" fill="#000000">libosp/common/constants.h</text>
</g>
<!-- Node2 -->
<g id="node2" class="node">
<title>Node2</title>
<g id="a_node2"><a xlink:href="logger_8c.html" target="_top" xlink:title="osp/logger.c">
<polygon fill="#ffffff" stroke="#000000" points="6.7772,-190.5 6.7772,-208.5 76.7078,-208.5 76.7078,-190.5 6.7772,-190.5"/>
<text text-anchor="middle" x="41.7425" y="-196.5" font-family="Helvetica,sans-Serif" font-size="10.00" fill="#000000">osp/logger.c</text>
</a>
</g>
</g>
<!-- Node1&#45;&gt;Node2 -->
<g id="edge1" class="edge">
<title>Node1&#45;&gt;Node2</title>
<path fill="none" stroke="#191970" d="M187.2736,-247.2574C159.294,-238.1099 120.1193,-225.2908 85.7425,-214 80.3935,-212.2432 74.68,-210.363 69.2012,-208.5582"/>
<polygon fill="#191970" stroke="#191970" points="186.4532,-250.6714 197.0458,-250.4518 188.6282,-244.0178 186.4532,-250.6714"/>
</g>
<!-- Node3 -->
<g id="node3" class="node">
<title>Node3</title>
<g id="a_node3"><a xlink:href="main_8c.html" target="_top" xlink:title="osp/main.c">
<polygon fill="#ffffff" stroke="#000000" points="250.5652,-.5 250.5652,-18.5 314.9197,-18.5 314.9197,-.5 250.5652,-.5"/>
<text text-anchor="middle" x="282.7425" y="-6.5" font-family="Helvetica,sans-Serif" font-size="10.00" fill="#000000">osp/main.c</text>
</a>
</g>
</g>
<!-- Node1&#45;&gt;Node3 -->
<g id="edge2" class="edge">
<title>Node1&#45;&gt;Node3</title>
<path fill="none" stroke="#191970" d="M229.8747,-240.6072C238.4957,-208.5439 256.1731,-141.3656 268.7425,-84 273.869,-60.6031 278.7823,-32.819 281.1944,-18.7112"/>
<polygon fill="#191970" stroke="#191970" points="226.4556,-239.8435 227.2263,-250.4103 233.2134,-241.6693 226.4556,-239.8435"/>
</g>
<!-- Node4 -->
<g id="node4" class="node">
<title>Node4</title>
<g id="a_node4"><a xlink:href="coeffs_8h.html" target="_top" xlink:title="libosp/osp_process\l/coeffs.h">
<polygon fill="#ffffff" stroke="#000000" points="94.9398,-185.5 94.9398,-213.5 196.5452,-213.5 196.5452,-185.5 94.9398,-185.5"/>
<text text-anchor="start" x="102.9398" y="-201.5" font-family="Helvetica,sans-Serif" font-size="10.00" fill="#000000">libosp/osp_process</text>
<text text-anchor="middle" x="145.7425" y="-191.5" font-family="Helvetica,sans-Serif" font-size="10.00" fill="#000000">/coeffs.h</text>
</a>
</g>
</g>
<!-- Node1&#45;&gt;Node4 -->
<g id="edge3" class="edge">
<title>Node1&#45;&gt;Node4</title>
<path fill="none" stroke="#191970" d="M204.4227,-244.0673C192.0539,-234.6732 176.3717,-222.7627 164.3316,-213.6183"/>
<polygon fill="#191970" stroke="#191970" points="202.6636,-247.1262 212.7441,-250.3873 206.8974,-241.5517 202.6636,-247.1262"/>
</g>
<!-- Node6 -->
<g id="node6" class="node">
<title>Node6</title>
<g id="a_node6"><a xlink:href="osp__process_8h.html" target="_top" xlink:title="libosp/osp_process\l/osp_process.h">
<polygon fill="#ffffff" stroke="#000000" points="133.9398,-120.5 133.9398,-148.5 235.5452,-148.5 235.5452,-120.5 133.9398,-120.5"/>
<text text-anchor="start" x="141.9398" y="-136.5" font-family="Helvetica,sans-Serif" font-size="10.00" fill="#000000">libosp/osp_process</text>
<text text-anchor="middle" x="184.7425" y="-126.5" font-family="Helvetica,sans-Serif" font-size="10.00" fill="#000000">/osp_process.h</text>
</a>
</g>
</g>
<!-- Node1&#45;&gt;Node6 -->
<g id="edge12" class="edge">
<title>Node1&#45;&gt;Node6</title>
<path fill="none" stroke="#191970" d="M220.5797,-239.9926C217.1502,-224.8321 211.867,-203.3645 205.7425,-185 201.597,-172.5697 195.8185,-158.8661 191.3722,-148.8741"/>
<polygon fill="#191970" stroke="#191970" points="217.2583,-241.1856 222.8241,-250.2007 224.095,-239.6824 217.2583,-241.1856"/>
</g>
<!-- Node9 -->
<g id="node9" class="node">
<title>Node9</title>
<g id="a_node9"><a xlink:href="osp__tcp_8h.html" target="_top" xlink:title="libosp/osp_tcp/osp\l_tcp.h">
<polygon fill="#ffffff" stroke="#000000" points="329.3265,-185.5 329.3265,-213.5 428.1585,-213.5 428.1585,-185.5 329.3265,-185.5"/>
<text text-anchor="start" x="337.3265" y="-201.5" font-family="Helvetica,sans-Serif" font-size="10.00" fill="#000000">libosp/osp_tcp/osp</text>
<text text-anchor="middle" x="378.7425" y="-191.5" font-family="Helvetica,sans-Serif" font-size="10.00" fill="#000000">_tcp.h</text>
</a>
</g>
</g>
<!-- Node1&#45;&gt;Node9 -->
<g id="edge13" class="edge">
<title>Node1&#45;&gt;Node9</title>
<path fill="none" stroke="#191970" d="M257.5588,-246.7144C282.587,-236.9632 317.0286,-223.5444 342.7988,-213.504"/>
<polygon fill="#191970" stroke="#191970" points="256.1789,-243.4957 248.1318,-250.3873 258.7202,-250.0182 256.1789,-243.4957"/>
</g>
<!-- Node5 -->
<g id="node5" class="node">
<title>Node5</title>
<g id="a_node5"><a xlink:href="port__wrapper_8c.html" target="_top" xlink:title="osp/port_wrapper.c">
<polygon fill="#ffffff" stroke="#000000" points="43.2156,-.5 43.2156,-18.5 144.2693,-18.5 144.2693,-.5 43.2156,-.5"/>
<text text-anchor="middle" x="93.7425" y="-6.5" font-family="Helvetica,sans-Serif" font-size="10.00" fill="#000000">osp/port_wrapper.c</text>
</a>
</g>
</g>
<!-- Node4&#45;&gt;Node5 -->
<g id="edge4" class="edge">
<title>Node4&#45;&gt;Node5</title>
<path fill="none" stroke="#191970" d="M106.9765,-180.4269C72.9546,-161.2914 25.7243,-128.3099 4.7425,-84 -.7735,-72.3511 -1.9845,-65.9942 4.7425,-55 16.0639,-36.4969 37.5485,-25.2152 56.5721,-18.5142"/>
<polygon fill="#191970" stroke="#191970" points="105.7348,-183.7365 116.1894,-185.4548 109.0882,-177.592 105.7348,-183.7365"/>
</g>
<!-- Node4&#45;&gt;Node6 -->
<g id="edge5" class="edge">
<title>Node4&#45;&gt;Node6</title>
<path fill="none" stroke="#191970" d="M159.4971,-176.5756C165.0981,-167.2406 171.3935,-156.7483 176.2966,-148.5765"/>
<polygon fill="#191970" stroke="#191970" points="156.3487,-175.0203 154.2049,-185.396 162.3511,-178.6218 156.3487,-175.0203"/>
</g>
<!-- Node8 -->
<g id="node8" class="node">
<title>Node8</title>
<g id="a_node8"><a xlink:href="osp__process_8c.html" target="_top" xlink:title="libosp/osp_process\l/osp_process.c">
<polygon fill="#ffffff" stroke="#000000" points="13.9398,-55.5 13.9398,-83.5 115.5452,-83.5 115.5452,-55.5 13.9398,-55.5"/>
<text text-anchor="start" x="21.9398" y="-71.5" font-family="Helvetica,sans-Serif" font-size="10.00" fill="#000000">libosp/osp_process</text>
<text text-anchor="middle" x="64.7425" y="-61.5" font-family="Helvetica,sans-Serif" font-size="10.00" fill="#000000">/osp_process.c</text>
</a>
</g>
</g>
<!-- Node4&#45;&gt;Node8 -->
<g id="edge11" class="edge">
<title>Node4&#45;&gt;Node8</title>
<path fill="none" stroke="#191970" d="M131.474,-176.5999C114.7293,-149.7258 87.485,-106.0004 73.5542,-83.6423"/>
<polygon fill="#191970" stroke="#191970" points="128.661,-178.7038 136.9199,-185.3402 134.6022,-175.002 128.661,-178.7038"/>
</g>
<!-- Node6&#45;&gt;Node3 -->
<g id="edge6" class="edge">
<title>Node6&#45;&gt;Node3</title>
<path fill="none" stroke="#191970" d="M213.4016,-114.2457C224.1156,-105.7372 235.8332,-95.2129 244.7425,-84 261.3621,-63.0832 273.7219,-33.7475 279.3596,-18.9007"/>
<polygon fill="#191970" stroke="#191970" points="211.2678,-111.4713 205.4674,-120.3372 215.5307,-117.0236 211.2678,-111.4713"/>
</g>
<!-- Node7 -->
<g id="node7" class="node">
<title>Node7</title>
<g id="a_node7"><a xlink:href="port__wrapper_8h.html" target="_top" xlink:title="osp/port_wrapper.h">
<polygon fill="#ffffff" stroke="#000000" points="133.9349,-60.5 133.9349,-78.5 235.5501,-78.5 235.5501,-60.5 133.9349,-60.5"/>
<text text-anchor="middle" x="184.7425" y="-66.5" font-family="Helvetica,sans-Serif" font-size="10.00" fill="#000000">osp/port_wrapper.h</text>
</a>
</g>
</g>
<!-- Node6&#45;&gt;Node7 -->
<g id="edge7" class="edge">
<title>Node6&#45;&gt;Node7</title>
<path fill="none" stroke="#191970" d="M184.7425,-110.3747C184.7425,-99.2832 184.7425,-86.7952 184.7425,-78.5743"/>
<polygon fill="#191970" stroke="#191970" points="181.2426,-110.3959 184.7425,-120.396 188.2426,-110.396 181.2426,-110.3959"/>
</g>
<!-- Node6&#45;&gt;Node8 -->
<g id="edge10" class="edge">
<title>Node6&#45;&gt;Node8</title>
<path fill="none" stroke="#191970" d="M149.804,-115.575C130.9275,-105.3502 108.0164,-92.94 90.7299,-83.5765"/>
<polygon fill="#191970" stroke="#191970" points="148.2443,-118.7106 158.7043,-120.396 151.5784,-112.5556 148.2443,-118.7106"/>
</g>
<!-- Node7&#45;&gt;Node3 -->
<g id="edge8" class="edge">
<title>Node7&#45;&gt;Node3</title>
<path fill="none" stroke="#191970" d="M208.3909,-55.0214C226.971,-43.6458 252.2628,-28.161 268.0394,-18.5019"/>
<polygon fill="#191970" stroke="#191970" points="206.3276,-52.1807 199.6266,-60.3873 209.9827,-58.1507 206.3276,-52.1807"/>
</g>
<!-- Node7&#45;&gt;Node5 -->
<g id="edge9" class="edge">
<title>Node7&#45;&gt;Node5</title>
<path fill="none" stroke="#191970" d="M162.5465,-54.8653C145.316,-43.5045 121.9781,-28.1169 107.3953,-18.5019"/>
<polygon fill="#191970" stroke="#191970" points="160.6463,-57.8047 170.9216,-60.3873 164.4995,-51.9606 160.6463,-57.8047"/>
</g>
<!-- Node9&#45;&gt;Node3 -->
<g id="edge14" class="edge">
<title>Node9&#45;&gt;Node3</title>
<path fill="none" stroke="#191970" d="M369.0991,-175.6961C354.7393,-140.5565 328.1043,-76.6247 315.7425,-55 308.0908,-41.6148 297.3138,-27.42 290.184,-18.5138"/>
<polygon fill="#191970" stroke="#191970" points="365.9533,-177.2514 372.9672,-185.1922 372.4362,-174.6107 365.9533,-177.2514"/>
</g>
<!-- Node10 -->
<g id="node10" class="node">
<title>Node10</title>
<g id="a_node10"><a xlink:href="osp__tcp_8c.html" target="_top" xlink:title="libosp/osp_tcp/osp\l_tcp.c">
<polygon fill="#ffffff" stroke="#000000" points="367.3265,-120.5 367.3265,-148.5 466.1585,-148.5 466.1585,-120.5 367.3265,-120.5"/>
<text text-anchor="start" x="375.3265" y="-136.5" font-family="Helvetica,sans-Serif" font-size="10.00" fill="#000000">libosp/osp_tcp/osp</text>
<text text-anchor="middle" x="416.7425" y="-126.5" font-family="Helvetica,sans-Serif" font-size="10.00" fill="#000000">_tcp.c</text>
</a>
</g>
</g>
<!-- Node9&#45;&gt;Node10 -->
<g id="edge15" class="edge">
<title>Node9&#45;&gt;Node10</title>
<path fill="none" stroke="#191970" d="M392.1445,-176.5756C397.6018,-167.2406 403.7358,-156.7483 408.5132,-148.5765"/>
<polygon fill="#191970" stroke="#191970" points="389.0134,-174.9965 386.9879,-185.396 395.0565,-178.5294 389.0134,-174.9965"/>
</g>
</g>
</svg>
