<?xml version="1.0" encoding="UTF-8" standalone="no"?>
<!DOCTYPE svg PUBLIC "-//W3C//DTD SVG 1.1//EN"
 "http://www.w3.org/Graphics/SVG/1.1/DTD/svg11.dtd">
<!-- Generated by graphviz version 2.40.1 (20161225.0304)
 -->
<!-- Title: libosp/osp_process Pages: 1 -->
<svg width="468pt" height="222pt"
 viewBox="0.00 0.00 468.20 222.00" xmlns="http://www.w3.org/2000/svg" xmlns:xlink="http://www.w3.org/1999/xlink">
<g id="graph0" class="graph" transform="scale(1 1) rotate(0) translate(4 218)">
<title>libosp/osp_process</title>
<polygon fill="#ffffff" stroke="transparent" points="-4,4 -4,-218 464.2041,-218 464.2041,4 -4,4"/>
<g id="clust1" class="cluster">
<title>clusterdir_344a92ffc85f32daed969785c1237399</title>
<g id="a_clust1"><a xlink:href="dir_344a92ffc85f32daed969785c1237399.html" target="_top" xlink:title="libosp">
<polygon fill="#ddddee" stroke="#000000" points="190.9604,-136 190.9604,-206 278.9604,-206 278.9604,-136 190.9604,-136"/>
<text text-anchor="middle" x="234.9604" y="-194" font-family="Helvetica,sans-Serif" font-size="10.00" fill="#000000">libosp</text>
</a>
</g>
</g>
<!-- dir_ddf0760a248aa19a1d9cd0e63f058c79 -->
<g id="node1" class="node">
<title>dir_ddf0760a248aa19a1d9cd0e63f058c79</title>
<g id="a_node1"><a xlink:href="dir_ddf0760a248aa19a1d9cd0e63f058c79.html" target="_top" xlink:title="osp_process">
<polygon fill="#eeeeff" stroke="#000000" points="271.1603,-180 198.7606,-180 198.7606,-144 271.1603,-144 271.1603,-180"/>
<text text-anchor="middle" x="234.9604" y="-159" font-family="Helvetica,sans-Serif" font-size="10.00" fill="#000000">osp_process</text>
</a>
</g>
</g>
<!-- dir_e541d5957584045964f1a22ce7cd4939 -->
<g id="node2" class="node">
<title>dir_e541d5957584045964f1a22ce7cd4939</title>
<g id="a_node2"><a xlink:href="dir_e541d5957584045964f1a22ce7cd4939.html" target="_top" xlink:title="beam_forming">
<polygon fill="none" stroke="#000000" points="79.8814,-108 .0395,-108 .0395,-72 79.8814,-72 79.8814,-108"/>
<text text-anchor="middle" x="39.9604" y="-87" font-family="Helvetica,sans-Serif" font-size="10.00" fill="#000000">beam_forming</text>
</a>
</g>
</g>
<!-- dir_ddf0760a248aa19a1d9cd0e63f058c79&#45;&gt;dir_e541d5957584045964f1a22ce7cd4939 -->
<g id="edge1" class="edge">
<title>dir_ddf0760a248aa19a1d9cd0e63f058c79&#45;&gt;dir_e541d5957584045964f1a22ce7cd4939</title>
<path fill="none" stroke="#000000" d="M198.7394,-148.6261C168.0641,-137.2998 123.7795,-120.9486 89.7681,-108.3905"/>
<polygon fill="#000000" stroke="#000000" points="90.6126,-104.9714 80.0193,-104.791 88.1879,-111.5381 90.6126,-104.9714"/>
<g id="a_edge1&#45;headlabel"><a xlink:href="dir_000006_000003.html" target="_top" xlink:title="1">
<text text-anchor="middle" x="94.9681" y="-100.5529" font-family="Helvetica,sans-Serif" font-size="10.00" fill="#000000">1</text>
</a>
</g>
</g>
<!-- dir_1192e444e0b425469744ddb44f5500ff -->
<g id="node3" class="node">
<title>dir_1192e444e0b425469744ddb44f5500ff</title>
<g id="a_node3"><a xlink:href="dir_1192e444e0b425469744ddb44f5500ff.html" target="_top" xlink:title="wdrc">
<polygon fill="none" stroke="#000000" points="151.9604,-108 97.9604,-108 97.9604,-72 151.9604,-72 151.9604,-108"/>
<text text-anchor="middle" x="124.9604" y="-87" font-family="Helvetica,sans-Serif" font-size="10.00" fill="#000000">wdrc</text>
</a>
</g>
</g>
<!-- dir_ddf0760a248aa19a1d9cd0e63f058c79&#45;&gt;dir_1192e444e0b425469744ddb44f5500ff -->
<g id="edge2" class="edge">
<title>dir_ddf0760a248aa19a1d9cd0e63f058c79&#45;&gt;dir_1192e444e0b425469744ddb44f5500ff</title>
<path fill="none" stroke="#000000" d="M207.2028,-143.8314C193.157,-134.6377 175.94,-123.3684 160.895,-113.5208"/>
<polygon fill="#000000" stroke="#000000" points="162.612,-110.4616 152.3282,-107.9134 158.7784,-116.3185 162.612,-110.4616"/>
<g id="a_edge2&#45;headlabel"><a xlink:href="dir_000006_000010.html" target="_top" xlink:title="3">
<text text-anchor="middle" x="167.1746" y="-107.0545" font-family="Helvetica,sans-Serif" font-size="10.00" fill="#000000">3</text>
</a>
</g>
</g>
<!-- dir_d2ff1931eae1d716ba66faf7712a9d40 -->
<g id="node4" class="node">
<title>dir_d2ff1931eae1d716ba66faf7712a9d40</title>
<g id="a_node4"><a xlink:href="dir_d2ff1931eae1d716ba66faf7712a9d40.html" target="_top" xlink:title="array_utilities">
<polygon fill="none" stroke="#000000" points="267.3716,-36 192.5493,-36 192.5493,0 267.3716,0 267.3716,-36"/>
<text text-anchor="middle" x="229.9604" y="-15" font-family="Helvetica,sans-Serif" font-size="10.00" fill="#000000">array_utilities</text>
</a>
</g>
</g>
<!-- dir_ddf0760a248aa19a1d9cd0e63f058c79&#45;&gt;dir_d2ff1931eae1d716ba66faf7712a9d40 -->
<g id="edge3" class="edge">
<title>dir_ddf0760a248aa19a1d9cd0e63f058c79&#45;&gt;dir_d2ff1931eae1d716ba66faf7712a9d40</title>
<path fill="none" stroke="#000000" d="M218.97,-143.9169C211.3066,-134.0371 202.9439,-121.1563 198.9604,-108 194.3239,-92.6865 194.8384,-87.4599 198.9604,-72 201.4556,-62.6419 206.0013,-53.2199 210.8565,-44.925"/>
<polygon fill="#000000" stroke="#000000" points="213.8376,-46.759 216.1642,-36.4228 207.8996,-43.0521 213.8376,-46.759"/>
<g id="a_edge3&#45;headlabel"><a xlink:href="dir_000006_000002.html" target="_top" xlink:title="1">
<text text-anchor="middle" x="214.3426" y="-48.3118" font-family="Helvetica,sans-Serif" font-size="10.00" fill="#000000">1</text>
</a>
</g>
</g>
<!-- dir_c1518514b5e4fe9e783e310dfe1cfbfe -->
<g id="node5" class="node">
<title>dir_c1518514b5e4fe9e783e310dfe1cfbfe</title>
<g id="a_node5"><a xlink:href="dir_c1518514b5e4fe9e783e310dfe1cfbfe.html" target="_top" xlink:title="common">
<polygon fill="none" stroke="#000000" points="262.3063,-108 207.6146,-108 207.6146,-72 262.3063,-72 262.3063,-108"/>
<text text-anchor="middle" x="234.9604" y="-87" font-family="Helvetica,sans-Serif" font-size="10.00" fill="#000000">common</text>
</a>
</g>
</g>
<!-- dir_ddf0760a248aa19a1d9cd0e63f058c79&#45;&gt;dir_c1518514b5e4fe9e783e310dfe1cfbfe -->
<g id="edge4" class="edge">
<title>dir_ddf0760a248aa19a1d9cd0e63f058c79&#45;&gt;dir_c1518514b5e4fe9e783e310dfe1cfbfe</title>
<path fill="none" stroke="#000000" d="M234.9604,-143.8314C234.9604,-136.131 234.9604,-126.9743 234.9604,-118.4166"/>
<polygon fill="#000000" stroke="#000000" points="238.4605,-118.4132 234.9604,-108.4133 231.4605,-118.4133 238.4605,-118.4132"/>
<g id="a_edge4&#45;headlabel"><a xlink:href="dir_000006_000004.html" target="_top" xlink:title="2">
<text text-anchor="middle" x="241.2997" y="-119.0079" font-family="Helvetica,sans-Serif" font-size="10.00" fill="#000000">2</text>
</a>
</g>
</g>
<!-- dir_d30d913637fbf7f792881e6c97312ebe -->
<g id="node6" class="node">
<title>dir_d30d913637fbf7f792881e6c97312ebe</title>
<g id="a_node6"><a xlink:href="dir_d30d913637fbf7f792881e6c97312ebe.html" target="_top" xlink:title="afc">
<polygon fill="none" stroke="#000000" points="333.9604,-108 279.9604,-108 279.9604,-72 333.9604,-72 333.9604,-108"/>
<text text-anchor="middle" x="306.9604" y="-87" font-family="Helvetica,sans-Serif" font-size="10.00" fill="#000000">afc</text>
</a>
</g>
</g>
<!-- dir_ddf0760a248aa19a1d9cd0e63f058c79&#45;&gt;dir_d30d913637fbf7f792881e6c97312ebe -->
<g id="edge5" class="edge">
<title>dir_ddf0760a248aa19a1d9cd0e63f058c79&#45;&gt;dir_d30d913637fbf7f792881e6c97312ebe</title>
<path fill="none" stroke="#000000" d="M253.1291,-143.8314C261.6757,-135.2848 272.0161,-124.9443 281.3406,-115.6198"/>
<polygon fill="#000000" stroke="#000000" points="283.951,-117.9592 288.5472,-108.4133 279.0012,-113.0095 283.951,-117.9592"/>
<g id="a_edge5&#45;headlabel"><a xlink:href="dir_000006_000001.html" target="_top" xlink:title="1">
<text text-anchor="middle" x="283.4169" y="-119.5087" font-family="Helvetica,sans-Serif" font-size="10.00" fill="#000000">1</text>
</a>
</g>
</g>
<!-- dir_de7a9cb073e10e7815aee1406a0b0d94 -->
<g id="node7" class="node">
<title>dir_de7a9cb073e10e7815aee1406a0b0d94</title>
<g id="a_node7"><a xlink:href="dir_de7a9cb073e10e7815aee1406a0b0d94.html" target="_top" xlink:title="filter">
<polygon fill="none" stroke="#000000" points="360.9604,-36 306.9604,-36 306.9604,0 360.9604,0 360.9604,-36"/>
<text text-anchor="middle" x="333.9604" y="-15" font-family="Helvetica,sans-Serif" font-size="10.00" fill="#000000">filter</text>
</a>
</g>
</g>
<!-- dir_ddf0760a248aa19a1d9cd0e63f058c79&#45;&gt;dir_de7a9cb073e10e7815aee1406a0b0d94 -->
<g id="edge6" class="edge">
<title>dir_ddf0760a248aa19a1d9cd0e63f058c79&#45;&gt;dir_de7a9cb073e10e7815aee1406a0b0d94</title>
<path fill="none" stroke="#000000" d="M271.3546,-154.3209C296.2362,-146.9714 327.4209,-133.1436 342.9604,-108 354.4369,-89.4307 350.7953,-64.4894 345.0706,-45.5723"/>
<polygon fill="#000000" stroke="#000000" points="348.3654,-44.3892 341.8578,-36.0284 341.7312,-46.6225 348.3654,-44.3892"/>
<g id="a_edge6&#45;headlabel"><a xlink:href="dir_000006_000005.html" target="_top" xlink:title="1">
<text text-anchor="middle" x="352.203" y="-43.8901" font-family="Helvetica,sans-Serif" font-size="10.00" fill="#000000">1</text>
</a>
</g>
</g>
<!-- dir_e4d4d3e4b2729fb205722b1fca19ad82 -->
<g id="node8" class="node">
<title>dir_e4d4d3e4b2729fb205722b1fca19ad82</title>
<g id="a_node8"><a xlink:href="dir_e4d4d3e4b2729fb205722b1fca19ad82.html" target="_top" xlink:title="peak_detect">
<polygon fill="none" stroke="#000000" points="460.4495,-108 389.4714,-108 389.4714,-72 460.4495,-72 460.4495,-108"/>
<text text-anchor="middle" x="424.9604" y="-87" font-family="Helvetica,sans-Serif" font-size="10.00" fill="#000000">peak_detect</text>
</a>
</g>
</g>
<!-- dir_ddf0760a248aa19a1d9cd0e63f058c79&#45;&gt;dir_e4d4d3e4b2729fb205722b1fca19ad82 -->
<g id="edge7" class="edge">
<title>dir_ddf0760a248aa19a1d9cd0e63f058c79&#45;&gt;dir_e4d4d3e4b2729fb205722b1fca19ad82</title>
<path fill="none" stroke="#000000" d="M271.5944,-148.1177C302.5107,-136.402 346.8919,-119.5839 379.9644,-107.0511"/>
<polygon fill="#000000" stroke="#000000" points="381.2932,-110.2905 389.404,-103.474 378.8127,-103.7448 381.2932,-110.2905"/>
<g id="a_edge7&#45;headlabel"><a xlink:href="dir_000006_000008.html" target="_top" xlink:title="1">
<text text-anchor="middle" x="378.9379" y="-111.2193" font-family="Helvetica,sans-Serif" font-size="10.00" fill="#000000">1</text>
</a>
</g>
</g>
<!-- dir_d30d913637fbf7f792881e6c97312ebe&#45;&gt;dir_d2ff1931eae1d716ba66faf7712a9d40 -->
<g id="edge8" class="edge">
<title>dir_d30d913637fbf7f792881e6c97312ebe&#45;&gt;dir_d2ff1931eae1d716ba66faf7712a9d40</title>
<path fill="none" stroke="#000000" d="M287.5301,-71.8314C278.2285,-63.1337 266.9401,-52.5783 256.8319,-43.1265"/>
<polygon fill="#000000" stroke="#000000" points="259.0793,-40.4363 249.3846,-36.1628 254.2984,-45.5493 259.0793,-40.4363"/>
<g id="a_edge8&#45;headlabel"><a xlink:href="dir_000001_000002.html" target="_top" xlink:title="1">
<text text-anchor="middle" x="263.6441" y="-37.8175" font-family="Helvetica,sans-Serif" font-size="10.00" fill="#000000">1</text>
</a>
</g>
</g>
<!-- dir_d30d913637fbf7f792881e6c97312ebe&#45;&gt;dir_de7a9cb073e10e7815aee1406a0b0d94 -->
<g id="edge9" class="edge">
<title>dir_d30d913637fbf7f792881e6c97312ebe&#45;&gt;dir_de7a9cb073e10e7815aee1406a0b0d94</title>
<path fill="none" stroke="#000000" d="M313.7737,-71.8314C316.7248,-63.9617 320.2463,-54.5712 323.5155,-45.8533"/>
<polygon fill="#000000" stroke="#000000" points="326.8213,-47.0055 327.0555,-36.4133 320.267,-44.5476 326.8213,-47.0055"/>
<g id="a_edge9&#45;headlabel"><a xlink:href="dir_000001_000005.html" target="_top" xlink:title="1">
<text text-anchor="middle" x="328.2177" y="-48.3682" font-family="Helvetica,sans-Serif" font-size="10.00" fill="#000000">1</text>
</a>
</g>
</g>
</g>
</svg>
