<?xml version="1.0" encoding="UTF-8" standalone="no"?>
<!DOCTYPE svg PUBLIC "-//W3C//DTD SVG 1.1//EN"
 "http://www.w3.org/Graphics/SVG/1.1/DTD/svg11.dtd">
<!-- Generated by graphviz version 2.40.1 (20161225.0304)
 -->
<!-- Title: libosp Pages: 1 -->
<svg width="540pt" height="220pt"
 viewBox="0.00 0.00 540.00 220.00" xmlns="http://www.w3.org/2000/svg" xmlns:xlink="http://www.w3.org/1999/xlink">
<g id="graph0" class="graph" transform="scale(1 1) rotate(0) translate(4 216)">
<title>libosp</title>
<polygon fill="#ffffff" stroke="transparent" points="-4,4 -4,-216 536,-216 536,4 -4,4"/>
<g id="clust1" class="cluster">
<title>clusterdir_344a92ffc85f32daed969785c1237399</title>
<g id="a_clust1"><a xlink:href="dir_344a92ffc85f32daed969785c1237399.html" target="_top">
<polygon fill="#eeeeff" stroke="#000000" points="8,-8 8,-204 524,-204 524,-8 8,-8"/>
</a>
</g>
</g>
<!-- dir_344a92ffc85f32daed969785c1237399 -->
<g id="node1" class="node">
<title>dir_344a92ffc85f32daed969785c1237399</title>
<text text-anchor="middle" x="443" y="-175" font-family="Helvetica,sans-Serif" font-size="10.00" fill="#000000">libosp</text>
</g>
<!-- dir_d30d913637fbf7f792881e6c97312ebe -->
<g id="node2" class="node">
<title>dir_d30d913637fbf7f792881e6c97312ebe</title>
<g id="a_node2"><a xlink:href="dir_d30d913637fbf7f792881e6c97312ebe.html" target="_top" xlink:title="afc">
<polygon fill="#ffffff" stroke="#000000" points="496,-124 442,-124 442,-88 496,-88 496,-124"/>
<text text-anchor="middle" x="469" y="-103" font-family="Helvetica,sans-Serif" font-size="10.00" fill="#000000">afc</text>
</a>
</g>
</g>
<!-- dir_d2ff1931eae1d716ba66faf7712a9d40 -->
<g id="node3" class="node">
<title>dir_d2ff1931eae1d716ba66faf7712a9d40</title>
<g id="a_node3"><a xlink:href="dir_d2ff1931eae1d716ba66faf7712a9d40.html" target="_top" xlink:title="array_utilities">
<polygon fill="#ffffff" stroke="#000000" points="511.4112,-52 436.5888,-52 436.5888,-16 511.4112,-16 511.4112,-52"/>
<text text-anchor="middle" x="474" y="-31" font-family="Helvetica,sans-Serif" font-size="10.00" fill="#000000">array_utilities</text>
</a>
</g>
</g>
<!-- dir_d30d913637fbf7f792881e6c97312ebe&#45;&gt;dir_d2ff1931eae1d716ba66faf7712a9d40 -->
<g id="edge10" class="edge">
<title>dir_d30d913637fbf7f792881e6c97312ebe&#45;&gt;dir_d2ff1931eae1d716ba66faf7712a9d40</title>
<path fill="none" stroke="#000000" d="M470.2617,-87.8314C470.7965,-80.131 471.4323,-70.9743 472.0266,-62.4166"/>
<polygon fill="#000000" stroke="#000000" points="475.52,-62.6317 472.7213,-52.4133 468.5368,-62.1467 475.52,-62.6317"/>
<g id="a_edge10&#45;headlabel"><a xlink:href="dir_000001_000002.html" target="_top" xlink:title="1">
<text text-anchor="middle" x="478.1035" y="-63.4144" font-family="Helvetica,sans-Serif" font-size="10.00" fill="#000000">1</text>
</a>
</g>
</g>
<!-- dir_de7a9cb073e10e7815aee1406a0b0d94 -->
<g id="node6" class="node">
<title>dir_de7a9cb073e10e7815aee1406a0b0d94</title>
<g id="a_node6"><a xlink:href="dir_de7a9cb073e10e7815aee1406a0b0d94.html" target="_top" xlink:title="filter">
<polygon fill="#ffffff" stroke="#000000" points="290,-52 236,-52 236,-16 290,-16 290,-52"/>
<text text-anchor="middle" x="263" y="-31" font-family="Helvetica,sans-Serif" font-size="10.00" fill="#000000">filter</text>
</a>
</g>
</g>
<!-- dir_d30d913637fbf7f792881e6c97312ebe&#45;&gt;dir_de7a9cb073e10e7815aee1406a0b0d94 -->
<g id="edge11" class="edge">
<title>dir_d30d913637fbf7f792881e6c97312ebe&#45;&gt;dir_de7a9cb073e10e7815aee1406a0b0d94</title>
<path fill="none" stroke="#000000" d="M441.686,-91.7916C438.7818,-90.4471 435.8488,-89.1564 433,-88 388.2123,-69.8194 334.84,-53.7336 300.0026,-43.9471"/>
<polygon fill="#000000" stroke="#000000" points="300.826,-40.5434 290.2539,-41.2372 298.9512,-47.2876 300.826,-40.5434"/>
<g id="a_edge11&#45;headlabel"><a xlink:href="dir_000001_000005.html" target="_top" xlink:title="1">
<text text-anchor="middle" x="305.0497" y="-35.7705" font-family="Helvetica,sans-Serif" font-size="10.00" fill="#000000">1</text>
</a>
</g>
</g>
<!-- dir_e541d5957584045964f1a22ce7cd4939 -->
<g id="node4" class="node">
<title>dir_e541d5957584045964f1a22ce7cd4939</title>
<g id="a_node4"><a xlink:href="dir_e541d5957584045964f1a22ce7cd4939.html" target="_top" xlink:title="beam_forming">
<polygon fill="#ffffff" stroke="#000000" points="243.9209,-124 164.0791,-124 164.0791,-88 243.9209,-88 243.9209,-124"/>
<text text-anchor="middle" x="204" y="-103" font-family="Helvetica,sans-Serif" font-size="10.00" fill="#000000">beam_forming</text>
</a>
</g>
</g>
<!-- dir_c1518514b5e4fe9e783e310dfe1cfbfe -->
<g id="node5" class="node">
<title>dir_c1518514b5e4fe9e783e310dfe1cfbfe</title>
<g id="a_node5"><a xlink:href="dir_c1518514b5e4fe9e783e310dfe1cfbfe.html" target="_top" xlink:title="common">
<polygon fill="#ffffff" stroke="#000000" points="146.3458,-124 91.6542,-124 91.6542,-88 146.3458,-88 146.3458,-124"/>
<text text-anchor="middle" x="119" y="-103" font-family="Helvetica,sans-Serif" font-size="10.00" fill="#000000">common</text>
</a>
</g>
</g>
<!-- dir_ddf0760a248aa19a1d9cd0e63f058c79 -->
<g id="node7" class="node">
<title>dir_ddf0760a248aa19a1d9cd0e63f058c79</title>
<g id="a_node7"><a xlink:href="dir_ddf0760a248aa19a1d9cd0e63f058c79.html" target="_top" xlink:title="osp_process">
<polygon fill="#ffffff" stroke="#000000" points="353.1998,-196 280.8002,-196 280.8002,-160 353.1998,-160 353.1998,-196"/>
<text text-anchor="middle" x="317" y="-175" font-family="Helvetica,sans-Serif" font-size="10.00" fill="#000000">osp_process</text>
</a>
</g>
</g>
<!-- dir_ddf0760a248aa19a1d9cd0e63f058c79&#45;&gt;dir_d30d913637fbf7f792881e6c97312ebe -->
<g id="edge6" class="edge">
<title>dir_ddf0760a248aa19a1d9cd0e63f058c79&#45;&gt;dir_d30d913637fbf7f792881e6c97312ebe</title>
<path fill="none" stroke="#000000" d="M353.4352,-161.3557C374.3801,-151.7162 401.3648,-139.1771 432.8994,-123.9964"/>
<polygon fill="#000000" stroke="#000000" points="434.4294,-127.1444 441.9132,-119.6448 431.3861,-120.8405 434.4294,-127.1444"/>
<g id="a_edge6&#45;headlabel"><a xlink:href="dir_000006_000001.html" target="_top" xlink:title="1">
<text text-anchor="middle" x="432.4267" y="-128.264" font-family="Helvetica,sans-Serif" font-size="10.00" fill="#000000">1</text>
</a>
</g>
</g>
<!-- dir_ddf0760a248aa19a1d9cd0e63f058c79&#45;&gt;dir_d2ff1931eae1d716ba66faf7712a9d40 -->
<g id="edge4" class="edge">
<title>dir_ddf0760a248aa19a1d9cd0e63f058c79&#45;&gt;dir_d2ff1931eae1d716ba66faf7712a9d40</title>
<path fill="none" stroke="#000000" d="M353.5732,-169.9717C405.6032,-158.1861 495.7551,-136.2741 505,-124 519.1402,-105.2265 508.002,-79.5355 495.3078,-60.407"/>
<polygon fill="#000000" stroke="#000000" points="498.0838,-58.2706 489.4511,-52.1284 492.3692,-62.3134 498.0838,-58.2706"/>
<g id="a_edge4&#45;headlabel"><a xlink:href="dir_000006_000002.html" target="_top" xlink:title="1">
<text text-anchor="middle" x="502.4776" y="-56.5653" font-family="Helvetica,sans-Serif" font-size="10.00" fill="#000000">1</text>
</a>
</g>
</g>
<!-- dir_ddf0760a248aa19a1d9cd0e63f058c79&#45;&gt;dir_e541d5957584045964f1a22ce7cd4939 -->
<g id="edge2" class="edge">
<title>dir_ddf0760a248aa19a1d9cd0e63f058c79&#45;&gt;dir_e541d5957584045964f1a22ce7cd4939</title>
<path fill="none" stroke="#000000" d="M288.4853,-159.8314C274.1658,-150.7074 256.6376,-139.539 241.2662,-129.7449"/>
<polygon fill="#000000" stroke="#000000" points="242.8199,-126.5847 232.5055,-124.1628 239.0583,-132.4882 242.8199,-126.5847"/>
<g id="a_edge2&#45;headlabel"><a xlink:href="dir_000006_000003.html" target="_top" xlink:title="1">
<text text-anchor="middle" x="247.3771" y="-123.1218" font-family="Helvetica,sans-Serif" font-size="10.00" fill="#000000">1</text>
</a>
</g>
</g>
<!-- dir_ddf0760a248aa19a1d9cd0e63f058c79&#45;&gt;dir_c1518514b5e4fe9e783e310dfe1cfbfe -->
<g id="edge5" class="edge">
<title>dir_ddf0760a248aa19a1d9cd0e63f058c79&#45;&gt;dir_c1518514b5e4fe9e783e310dfe1cfbfe</title>
<path fill="none" stroke="#000000" d="M280.7516,-167.5313C249.5711,-158.1711 203.3388,-143.4483 155.5804,-123.9883"/>
<polygon fill="#000000" stroke="#000000" points="156.9098,-120.7506 146.3311,-120.1669 154.2368,-127.2202 156.9098,-120.7506"/>
<g id="a_edge5&#45;headlabel"><a xlink:href="dir_000006_000004.html" target="_top" xlink:title="2">
<text text-anchor="middle" x="161.3162" y="-116.499" font-family="Helvetica,sans-Serif" font-size="10.00" fill="#000000">2</text>
</a>
</g>
</g>
<!-- dir_ddf0760a248aa19a1d9cd0e63f058c79&#45;&gt;dir_de7a9cb073e10e7815aee1406a0b0d94 -->
<g id="edge7" class="edge">
<title>dir_ddf0760a248aa19a1d9cd0e63f058c79&#45;&gt;dir_de7a9cb073e10e7815aee1406a0b0d94</title>
<path fill="none" stroke="#000000" d="M297.693,-159.8024C288.6323,-150.0837 278.6135,-137.3821 273,-124 264.8154,-104.4886 262.4727,-80.6176 262.0914,-62.3636"/>
<polygon fill="#000000" stroke="#000000" points="265.5915,-62.3309 262.0643,-52.3404 258.5915,-62.3499 265.5915,-62.3309"/>
<g id="a_edge7&#45;headlabel"><a xlink:href="dir_000006_000005.html" target="_top" xlink:title="1">
<text text-anchor="middle" x="268.4404" y="-62.9178" font-family="Helvetica,sans-Serif" font-size="10.00" fill="#000000">1</text>
</a>
</g>
</g>
<!-- dir_e4d4d3e4b2729fb205722b1fca19ad82 -->
<g id="node9" class="node">
<title>dir_e4d4d3e4b2729fb205722b1fca19ad82</title>
<g id="a_node9"><a xlink:href="dir_e4d4d3e4b2729fb205722b1fca19ad82.html" target="_top" xlink:title="peak_detect">
<polygon fill="#ffffff" stroke="#000000" points="352.489,-124 281.511,-124 281.511,-88 352.489,-88 352.489,-124"/>
<text text-anchor="middle" x="317" y="-103" font-family="Helvetica,sans-Serif" font-size="10.00" fill="#000000">peak_detect</text>
</a>
</g>
</g>
<!-- dir_ddf0760a248aa19a1d9cd0e63f058c79&#45;&gt;dir_e4d4d3e4b2729fb205722b1fca19ad82 -->
<g id="edge8" class="edge">
<title>dir_ddf0760a248aa19a1d9cd0e63f058c79&#45;&gt;dir_e4d4d3e4b2729fb205722b1fca19ad82</title>
<path fill="none" stroke="#000000" d="M317,-159.8314C317,-152.131 317,-142.9743 317,-134.4166"/>
<polygon fill="#000000" stroke="#000000" points="320.5001,-134.4132 317,-124.4133 313.5001,-134.4133 320.5001,-134.4132"/>
<g id="a_edge8&#45;headlabel"><a xlink:href="dir_000006_000008.html" target="_top" xlink:title="1">
<text text-anchor="middle" x="323.3393" y="-135.0079" font-family="Helvetica,sans-Serif" font-size="10.00" fill="#000000">1</text>
</a>
</g>
</g>
<!-- dir_1192e444e0b425469744ddb44f5500ff -->
<g id="node11" class="node">
<title>dir_1192e444e0b425469744ddb44f5500ff</title>
<g id="a_node11"><a xlink:href="dir_1192e444e0b425469744ddb44f5500ff.html" target="_top" xlink:title="wdrc">
<polygon fill="#ffffff" stroke="#000000" points="424,-124 370,-124 370,-88 424,-88 424,-124"/>
<text text-anchor="middle" x="397" y="-103" font-family="Helvetica,sans-Serif" font-size="10.00" fill="#000000">wdrc</text>
</a>
</g>
</g>
<!-- dir_ddf0760a248aa19a1d9cd0e63f058c79&#45;&gt;dir_1192e444e0b425469744ddb44f5500ff -->
<g id="edge3" class="edge">
<title>dir_ddf0760a248aa19a1d9cd0e63f058c79&#45;&gt;dir_1192e444e0b425469744ddb44f5500ff</title>
<path fill="none" stroke="#000000" d="M337.1874,-159.8314C346.8514,-151.1337 358.5796,-140.5783 369.0816,-131.1265"/>
<polygon fill="#000000" stroke="#000000" points="371.7275,-133.454 376.8191,-124.1628 367.0447,-128.251 371.7275,-133.454"/>
<g id="a_edge3&#45;headlabel"><a xlink:href="dir_000006_000010.html" target="_top" xlink:title="3">
<text text-anchor="middle" x="370.955" y="-134.9691" font-family="Helvetica,sans-Serif" font-size="10.00" fill="#000000">3</text>
</a>
</g>
</g>
<!-- dir_13cda17aba8e814f4afb5662c5c96c8d -->
<g id="node8" class="node">
<title>dir_13cda17aba8e814f4afb5662c5c96c8d</title>
<g id="a_node8"><a xlink:href="dir_13cda17aba8e814f4afb5662c5c96c8d.html" target="_top" xlink:title="osp_tcp">
<polygon fill="#ffffff" stroke="#000000" points="146,-196 92,-196 92,-160 146,-160 146,-196"/>
<text text-anchor="middle" x="119" y="-175" font-family="Helvetica,sans-Serif" font-size="10.00" fill="#000000">osp_tcp</text>
</a>
</g>
</g>
<!-- dir_13cda17aba8e814f4afb5662c5c96c8d&#45;&gt;dir_c1518514b5e4fe9e783e310dfe1cfbfe -->
<g id="edge9" class="edge">
<title>dir_13cda17aba8e814f4afb5662c5c96c8d&#45;&gt;dir_c1518514b5e4fe9e783e310dfe1cfbfe</title>
<path fill="none" stroke="#000000" d="M119,-159.8314C119,-152.131 119,-142.9743 119,-134.4166"/>
<polygon fill="#000000" stroke="#000000" points="122.5001,-134.4132 119,-124.4133 115.5001,-134.4133 122.5001,-134.4132"/>
<g id="a_edge9&#45;headlabel"><a xlink:href="dir_000007_000004.html" target="_top" xlink:title="1">
<text text-anchor="middle" x="125.3393" y="-135.0079" font-family="Helvetica,sans-Serif" font-size="10.00" fill="#000000">1</text>
</a>
</g>
</g>
<!-- dir_b6246aa9d561796439e6a862135f2b86 -->
<g id="node10" class="node">
<title>dir_b6246aa9d561796439e6a862135f2b86</title>
<g id="a_node10"><a xlink:href="dir_b6246aa9d561796439e6a862135f2b86.html" target="_top" xlink:title="resample">
<polygon fill="#ffffff" stroke="#000000" points="73.6281,-124 16.3719,-124 16.3719,-88 73.6281,-88 73.6281,-124"/>
<text text-anchor="middle" x="45" y="-103" font-family="Helvetica,sans-Serif" font-size="10.00" fill="#000000">resample</text>
</a>
</g>
</g>
<!-- dir_b6246aa9d561796439e6a862135f2b86&#45;&gt;dir_de7a9cb073e10e7815aee1406a0b0d94 -->
<g id="edge1" class="edge">
<title>dir_b6246aa9d561796439e6a862135f2b86&#45;&gt;dir_de7a9cb073e10e7815aee1406a0b0d94</title>
<path fill="none" stroke="#000000" d="M73.8498,-91.783C76.9117,-90.4402 80.0018,-89.1523 83,-88 131.4366,-69.3849 189.1654,-53.0569 225.9446,-43.3593"/>
<polygon fill="#000000" stroke="#000000" points="226.9455,-46.7154 235.7375,-40.8035 225.1777,-39.9422 226.9455,-46.7154"/>
<g id="a_edge1&#45;headlabel"><a xlink:href="dir_000009_000005.html" target="_top" xlink:title="1">
<text text-anchor="middle" x="224.1843" y="-47.3703" font-family="Helvetica,sans-Serif" font-size="10.00" fill="#000000">1</text>
</a>
</g>
</g>
</g>
</svg>
