<?xml version="1.0" encoding="UTF-8" standalone="no"?>
<!DOCTYPE svg PUBLIC "-//W3C//DTD SVG 1.1//EN"
 "http://www.w3.org/Graphics/SVG/1.1/DTD/svg11.dtd">
<!-- Generated by graphviz version 2.40.1 (20161225.0304)
 -->
<!-- Title: osp/main.c Pages: 1 -->
<!--zoomable 247 -->
<svg id="main" version="1.1" xmlns="http://www.w3.org/2000/svg" xmlns:xlink="http://www.w3.org/1999/xlink" xml:space="preserve" onload="init(evt)">
<style type="text/css"><![CDATA[
.edge:hover path { stroke: red; }
.edge:hover polygon { stroke: red; fill: red; }
]]></style>
<script type="text/javascript"><![CDATA[
var edges = document.getElementsByTagName('g');
if (edges && edges.length) {
  for (var i=0;i<edges.length;i++) {
    if (edges[i].id.substr(0,4)=='edge') {
      edges[i].setAttribute('class','edge');
    }
  }
}
]]></script>
        <defs>
                <circle id="rim" cx="0" cy="0" r="7"/>
                <circle id="rim2" cx="0" cy="0" r="3.5"/>
                <g id="zoomPlus">
                        <use xlink:href="#rim" fill="#404040">
                                <set attributeName="fill" to="#808080" begin="zoomplus.mouseover" end="zoomplus.mouseout"/>
                        </use>
                        <path d="M-4,0h8M0,-4v8" fill="none" stroke="white" stroke-width="1.5" pointer-events="none"/>
                </g>
                <g id="zoomMin">
                        <use xlink:href="#rim" fill="#404040">
                                <set attributeName="fill" to="#808080" begin="zoomminus.mouseover" end="zoomminus.mouseout"/>
                        </use>
                        <path d="M-4,0h8" fill="none" stroke="white" stroke-width="1.5" pointer-events="none"/>
                </g>
                <g id="dirArrow">
                        <path fill="none" stroke="white" stroke-width="1.5" d="M0,-3.0v7 M-2.5,-0.5L0,-3.0L2.5,-0.5"/>
                </g>
               <g id="resetDef">
                       <use xlink:href="#rim2" fill="#404040">
                               <set attributeName="fill" to="#808080" begin="reset.mouseover" end="reset.mouseout"/>
                       </use>
               </g>
        </defs>

<script type="text/javascript">
var viewWidth = 1564;
var viewHeight = 247;
var sectionId = 'dynsection-0';
</script>
<script xlink:href="svgpan.js"/>
<svg id="graph" class="graph">
<g id="viewport">
<title>osp/main.c</title>
<polygon fill="#ffffff" stroke="transparent" points="-4,4 -4,-243 1559.5269,-243 1559.5269,4 -4,4"/>
<!-- Node0 -->
<g id="node1" class="node">
<title>Node0</title>
<polygon fill="#bfbfbf" stroke="#000000" points="723.5542,-220.5 723.5542,-238.5 787.9087,-238.5 787.9087,-220.5 723.5542,-220.5"/>
<text text-anchor="middle" x="755.7314" y="-226.5" font-family="Helvetica,sans-Serif" font-size="10.00" fill="#000000">osp/main.c</text>
</g>
<!-- Node1 -->
<g id="node2" class="node">
<title>Node1</title>
<polygon fill="#ffffff" stroke="#bfbfbf" points="0,-165.5 0,-183.5 45.4629,-183.5 45.4629,-165.5 0,-165.5"/>
<text text-anchor="middle" x="22.7314" y="-171.5" font-family="Helvetica,sans-Serif" font-size="10.00" fill="#000000">stdio.h</text>
</g>
<!-- Node0&#45;&gt;Node1 -->
<g id="edge1" class="edge">
<title>Node0&#45;&gt;Node1</title>
<path fill="none" stroke="#191970" d="M723.4562,-228.3648C606.516,-224.1058 204.5192,-208.1601 55.519,-183.6754"/>
<polygon fill="#191970" stroke="#191970" points="56.1049,-180.2249 45.6555,-181.9742 54.915,-187.123 56.1049,-180.2249"/>
</g>
<!-- Node2 -->
<g id="node3" class="node">
<title>Node2</title>
<polygon fill="#ffffff" stroke="#bfbfbf" points="63.335,-165.5 63.335,-183.5 112.1279,-183.5 112.1279,-165.5 63.335,-165.5"/>
<text text-anchor="middle" x="87.7314" y="-171.5" font-family="Helvetica,sans-Serif" font-size="10.00" fill="#000000">string.h</text>
</g>
<!-- Node0&#45;&gt;Node2 -->
<g id="edge2" class="edge">
<title>Node0&#45;&gt;Node2</title>
<path fill="none" stroke="#191970" d="M723.5134,-228.0453C614.3404,-222.9853 258.1509,-205.3776 122.6174,-183.7348"/>
<polygon fill="#191970" stroke="#191970" points="122.9233,-180.2373 112.4821,-182.0352 121.7656,-187.1409 122.9233,-180.2373"/>
</g>
<!-- Node3 -->
<g id="node4" class="node">
<title>Node3</title>
<polygon fill="#ffffff" stroke="#bfbfbf" points="130.4976,-165.5 130.4976,-183.5 180.9653,-183.5 180.9653,-165.5 130.4976,-165.5"/>
<text text-anchor="middle" x="155.7314" y="-171.5" font-family="Helvetica,sans-Serif" font-size="10.00" fill="#000000">signal.h</text>
</g>
<!-- Node0&#45;&gt;Node3 -->
<g id="edge3" class="edge">
<title>Node0&#45;&gt;Node3</title>
<path fill="none" stroke="#191970" d="M723.5415,-229.0718C638.1012,-227.479 398.5181,-220.0432 191.3796,-183.9863"/>
<polygon fill="#191970" stroke="#191970" points="191.6862,-180.4863 181.2295,-182.1916 190.4673,-187.3793 191.6862,-180.4863"/>
</g>
<!-- Node4 -->
<g id="node5" class="node">
<title>Node4</title>
<polygon fill="#ffffff" stroke="#bfbfbf" points="198.8892,-165.5 198.8892,-183.5 246.5737,-183.5 246.5737,-165.5 198.8892,-165.5"/>
<text text-anchor="middle" x="222.7314" y="-171.5" font-family="Helvetica,sans-Serif" font-size="10.00" fill="#000000">stdlib.h</text>
</g>
<!-- Node0&#45;&gt;Node4 -->
<g id="edge4" class="edge">
<title>Node0&#45;&gt;Node4</title>
<path fill="none" stroke="#191970" d="M723.48,-228.7783C644.8763,-226.5517 437.1791,-217.8559 256.6538,-184.0666"/>
<polygon fill="#191970" stroke="#191970" points="257.196,-180.607 246.718,-182.1759 255.8875,-187.4836 257.196,-180.607"/>
</g>
<!-- Node5 -->
<g id="node6" class="node">
<title>Node5</title>
<polygon fill="#ffffff" stroke="#bfbfbf" points="264.2192,-165.5 264.2192,-183.5 315.2437,-183.5 315.2437,-165.5 264.2192,-165.5"/>
<text text-anchor="middle" x="289.7314" y="-171.5" font-family="Helvetica,sans-Serif" font-size="10.00" fill="#000000">unistd.h</text>
</g>
<!-- Node0&#45;&gt;Node5 -->
<g id="edge5" class="edge">
<title>Node0&#45;&gt;Node5</title>
<path fill="none" stroke="#191970" d="M723.4871,-227.9535C652.869,-224.1728 479.1897,-212.7285 325.6939,-184.1229"/>
<polygon fill="#191970" stroke="#191970" points="326.0906,-180.6359 315.6139,-182.2138 324.7879,-187.5136 326.0906,-180.6359"/>
</g>
<!-- Node6 -->
<g id="node7" class="node">
<title>Node6</title>
<polygon fill="#ffffff" stroke="#bfbfbf" points="333.1748,-165.5 333.1748,-183.5 380.2881,-183.5 380.2881,-165.5 333.1748,-165.5"/>
<text text-anchor="middle" x="356.7314" y="-171.5" font-family="Helvetica,sans-Serif" font-size="10.00" fill="#000000">limits.h</text>
</g>
<!-- Node0&#45;&gt;Node6 -->
<g id="edge6" class="edge">
<title>Node0&#45;&gt;Node6</title>
<path fill="none" stroke="#191970" d="M723.5301,-227.3056C660.9409,-222.6563 518.4458,-210.1935 390.365,-184.0665"/>
<polygon fill="#191970" stroke="#191970" points="390.8882,-180.6006 380.3857,-181.9966 389.4664,-187.4547 390.8882,-180.6006"/>
</g>
<!-- Node7 -->
<g id="node8" class="node">
<title>Node7</title>
<polygon fill="#ffffff" stroke="#bfbfbf" points="397.9385,-165.5 397.9385,-183.5 459.5244,-183.5 459.5244,-165.5 397.9385,-165.5"/>
<text text-anchor="middle" x="428.7314" y="-171.5" font-family="Helvetica,sans-Serif" font-size="10.00" fill="#000000">execinfo.h</text>
</g>
<!-- Node0&#45;&gt;Node7 -->
<g id="edge7" class="edge">
<title>Node0&#45;&gt;Node7</title>
<path fill="none" stroke="#191970" d="M723.309,-225.1783C671.7582,-218.1299 567.7428,-203.1875 469.761,-184.0809"/>
<polygon fill="#191970" stroke="#191970" points="470.1774,-180.5958 459.6896,-182.0978 468.825,-187.4639 470.1774,-180.5958"/>
</g>
<!-- Node8 -->
<g id="node9" class="node">
<title>Node8</title>
<polygon fill="#ffffff" stroke="#bfbfbf" points="477.4458,-165.5 477.4458,-183.5 524.0171,-183.5 524.0171,-165.5 477.4458,-165.5"/>
<text text-anchor="middle" x="500.7314" y="-171.5" font-family="Helvetica,sans-Serif" font-size="10.00" fill="#000000">math.h</text>
</g>
<!-- Node0&#45;&gt;Node8 -->
<g id="edge8" class="edge">
<title>Node0&#45;&gt;Node8</title>
<path fill="none" stroke="#191970" d="M723.4046,-223.8204C681.7174,-216.297 606.8011,-202.1034 533.8907,-184.1326"/>
<polygon fill="#191970" stroke="#191970" points="534.6349,-180.7111 524.0854,-181.6895 532.9425,-187.5034 534.6349,-180.7111"/>
</g>
<!-- Node9 -->
<g id="node10" class="node">
<title>Node9</title>
<polygon fill="#ffffff" stroke="#bfbfbf" points="541.6035,-165.5 541.6035,-183.5 599.8594,-183.5 599.8594,-165.5 541.6035,-165.5"/>
<text text-anchor="middle" x="570.7314" y="-171.5" font-family="Helvetica,sans-Serif" font-size="10.00" fill="#000000">pthread.h</text>
</g>
<!-- Node0&#45;&gt;Node9 -->
<g id="edge9" class="edge">
<title>Node0&#45;&gt;Node9</title>
<path fill="none" stroke="#191970" d="M725.1825,-220.4179C693.6109,-211.0317 644.2195,-196.3478 609.8199,-186.1209"/>
<polygon fill="#191970" stroke="#191970" points="610.6855,-182.7269 600.1027,-183.232 608.6907,-189.4367 610.6855,-182.7269"/>
</g>
<!-- Node10 -->
<g id="node11" class="node">
<title>Node10</title>
<polygon fill="#ffffff" stroke="#bfbfbf" points="617.8892,-165.5 617.8892,-183.5 665.5737,-183.5 665.5737,-165.5 617.8892,-165.5"/>
<text text-anchor="middle" x="641.7314" y="-171.5" font-family="Helvetica,sans-Serif" font-size="10.00" fill="#000000">errno.h</text>
</g>
<!-- Node0&#45;&gt;Node10 -->
<g id="edge10" class="edge">
<title>Node0&#45;&gt;Node10</title>
<path fill="none" stroke="#191970" d="M736.9067,-220.4179C718.5896,-211.5807 690.5385,-198.0473 669.6284,-187.9591"/>
<polygon fill="#191970" stroke="#191970" points="671.1117,-184.7887 660.5842,-183.5956 668.0699,-191.0933 671.1117,-184.7887"/>
</g>
<!-- Node11 -->
<g id="node12" class="node">
<title>Node11</title>
<polygon fill="#ffffff" stroke="#bfbfbf" points="683.7217,-165.5 683.7217,-183.5 749.7412,-183.5 749.7412,-165.5 683.7217,-165.5"/>
<text text-anchor="middle" x="716.7314" y="-171.5" font-family="Helvetica,sans-Serif" font-size="10.00" fill="#000000">sys/types.h</text>
</g>
<!-- Node0&#45;&gt;Node11 -->
<g id="edge11" class="edge">
<title>Node0&#45;&gt;Node11</title>
<path fill="none" stroke="#191970" d="M749.2914,-220.4179C743.8482,-212.7415 735.8923,-201.5217 729.2075,-192.0945"/>
<polygon fill="#191970" stroke="#191970" points="731.9508,-189.9123 723.3114,-183.7795 726.2407,-193.9613 731.9508,-189.9123"/>
</g>
<!-- Node12 -->
<g id="node13" class="node">
<title>Node12</title>
<polygon fill="#ffffff" stroke="#bfbfbf" points="767.5542,-165.5 767.5542,-183.5 821.9087,-183.5 821.9087,-165.5 767.5542,-165.5"/>
<text text-anchor="middle" x="794.7314" y="-171.5" font-family="Helvetica,sans-Serif" font-size="10.00" fill="#000000">ifaddrs.h</text>
</g>
<!-- Node0&#45;&gt;Node12 -->
<g id="edge12" class="edge">
<title>Node0&#45;&gt;Node12</title>
<path fill="none" stroke="#191970" d="M762.1715,-220.4179C767.6147,-212.7415 775.5706,-201.5217 782.2554,-192.0945"/>
<polygon fill="#191970" stroke="#191970" points="785.2222,-193.9613 788.1515,-183.7795 779.5121,-189.9123 785.2222,-193.9613"/>
</g>
<!-- Node13 -->
<g id="node14" class="node">
<title>Node13</title>
<polygon fill="#ffffff" stroke="#bfbfbf" points="840.2217,-165.5 840.2217,-183.5 911.2412,-183.5 911.2412,-165.5 840.2217,-165.5"/>
<text text-anchor="middle" x="875.7314" y="-171.5" font-family="Helvetica,sans-Serif" font-size="10.00" fill="#000000">sys/socket.h</text>
</g>
<!-- Node0&#45;&gt;Node13 -->
<g id="edge13" class="edge">
<title>Node0&#45;&gt;Node13</title>
<path fill="none" stroke="#191970" d="M775.547,-220.4179C794.915,-211.5409 824.6218,-197.9253 846.6632,-187.823"/>
<polygon fill="#191970" stroke="#191970" points="848.2541,-190.944 855.8864,-183.5956 845.3375,-184.5805 848.2541,-190.944"/>
</g>
<!-- Node14 -->
<g id="node15" class="node">
<title>Node14</title>
<polygon fill="#ffffff" stroke="#bfbfbf" points="929.1035,-165.5 929.1035,-183.5 992.3594,-183.5 992.3594,-165.5 929.1035,-165.5"/>
<text text-anchor="middle" x="960.7314" y="-171.5" font-family="Helvetica,sans-Serif" font-size="10.00" fill="#000000">arpa/inet.h</text>
</g>
<!-- Node0&#45;&gt;Node14 -->
<g id="edge14" class="edge">
<title>Node0&#45;&gt;Node14</title>
<path fill="none" stroke="#191970" d="M788.2143,-220.7851C823.6585,-211.2757 880.4992,-196.0257 919.1705,-185.6505"/>
<polygon fill="#191970" stroke="#191970" points="920.3227,-188.9652 929.0742,-182.9934 918.5088,-182.2043 920.3227,-188.9652"/>
</g>
<!-- Node15 -->
<g id="node16" class="node">
<title>Node15</title>
<polygon fill="#ffffff" stroke="#bfbfbf" points="1010.2686,-165.5 1010.2686,-183.5 1075.1943,-183.5 1075.1943,-165.5 1010.2686,-165.5"/>
<text text-anchor="middle" x="1042.7314" y="-171.5" font-family="Helvetica,sans-Serif" font-size="10.00" fill="#000000">netinet/in.h</text>
</g>
<!-- Node0&#45;&gt;Node15 -->
<g id="edge15" class="edge">
<title>Node0&#45;&gt;Node15</title>
<path fill="none" stroke="#191970" d="M788.0576,-223.9967C833.3312,-216.1856 918.423,-201.1288 1000.1408,-184.2677"/>
<polygon fill="#191970" stroke="#191970" points="1001.0071,-187.6626 1010.0868,-182.2029 999.5841,-180.8087 1001.0071,-187.6626"/>
</g>
<!-- Node16 -->
<g id="node17" class="node">
<title>Node16</title>
<g id="a_node17"><a xlink:href="osp__tcp_8h.html" target="_top" xlink:title="osp_tcp.h">
<polygon fill="#ffffff" stroke="#000000" points="1093.0493,-165.5 1093.0493,-183.5 1152.4136,-183.5 1152.4136,-165.5 1093.0493,-165.5"/>
<text text-anchor="middle" x="1122.7314" y="-171.5" font-family="Helvetica,sans-Serif" font-size="10.00" fill="#000000">osp_tcp.h</text>
</a>
</g>
</g>
<!-- Node0&#45;&gt;Node16 -->
<g id="edge16" class="edge">
<title>Node0&#45;&gt;Node16</title>
<path fill="none" stroke="#191970" d="M788.0324,-226.1164C845.3807,-219.8728 968.8951,-205.3629 1083.0343,-183.9619"/>
<polygon fill="#191970" stroke="#191970" points="1083.8164,-187.376 1092.9886,-182.0731 1082.5114,-180.4987 1083.8164,-187.376"/>
</g>
<!-- Node18 -->
<g id="node19" class="node">
<title>Node18</title>
<g id="a_node19"><a xlink:href="constants_8h.html" target="_top" xlink:title="constants.h">
<polygon fill="#ffffff" stroke="#000000" points="1166.1602,-.5 1166.1602,-18.5 1233.3027,-18.5 1233.3027,-.5 1166.1602,-.5"/>
<text text-anchor="middle" x="1199.7314" y="-6.5" font-family="Helvetica,sans-Serif" font-size="10.00" fill="#000000">constants.h</text>
</a>
</g>
</g>
<!-- Node0&#45;&gt;Node18 -->
<g id="edge28" class="edge">
<title>Node0&#45;&gt;Node18</title>
<path fill="none" stroke="#191970" d="M787.9941,-228.0208C879.2007,-223.5464 1134.1157,-208.913 1161.7314,-184 1205.9787,-144.0832 1205.2056,-65.7437 1202.072,-29.1751"/>
<polygon fill="#191970" stroke="#191970" points="1205.5181,-28.4669 1201.0257,-18.8716 1198.5539,-29.1741 1205.5181,-28.4669"/>
</g>
<!-- Node19 -->
<g id="node20" class="node">
<title>Node19</title>
<g id="a_node20"><a xlink:href="osp__process_8h.html" target="_top" xlink:title="osp_process.h">
<polygon fill="#ffffff" stroke="#000000" points="1220.2119,-110.5 1220.2119,-128.5 1301.251,-128.5 1301.251,-110.5 1220.2119,-110.5"/>
<text text-anchor="middle" x="1260.7314" y="-116.5" font-family="Helvetica,sans-Serif" font-size="10.00" fill="#000000">osp_process.h</text>
</a>
</g>
</g>
<!-- Node0&#45;&gt;Node19 -->
<g id="edge19" class="edge">
<title>Node0&#45;&gt;Node19</title>
<path fill="none" stroke="#191970" d="M787.9947,-228.8855C876.6906,-226.77 1122.4119,-217.9221 1194.7314,-184 1217.042,-173.535 1236.3686,-152.3611 1248.243,-137.1246"/>
<polygon fill="#191970" stroke="#191970" points="1251.1576,-139.0712 1254.3395,-128.9655 1245.55,-134.8812 1251.1576,-139.0712"/>
</g>
<!-- Node21 -->
<g id="node22" class="node">
<title>Node21</title>
<g id="a_node22"><a xlink:href="resample_8h.html" target="_top" xlink:title="resample.h">
<polygon fill="#ffffff" stroke="#000000" points="1246.9976,-165.5 1246.9976,-183.5 1312.4653,-183.5 1312.4653,-165.5 1246.9976,-165.5"/>
<text text-anchor="middle" x="1279.7314" y="-171.5" font-family="Helvetica,sans-Serif" font-size="10.00" fill="#000000">resample.h</text>
</a>
</g>
</g>
<!-- Node0&#45;&gt;Node21 -->
<g id="edge23" class="edge">
<title>Node0&#45;&gt;Node21</title>
<path fill="none" stroke="#191970" d="M787.9749,-227.5899C865.1198,-222.7666 1066.3042,-208.6885 1232.7314,-184 1234.0284,-183.8076 1235.3437,-183.6029 1236.6701,-183.3882"/>
<polygon fill="#191970" stroke="#191970" points="1237.6956,-186.7617 1246.9383,-181.5825 1236.4832,-179.8674 1237.6956,-186.7617"/>
</g>
<!-- Node22 -->
<g id="node23" class="node">
<title>Node22</title>
<g id="a_node23"><a xlink:href="utilities_8h.html" target="_top" xlink:title="utilities.h">
<polygon fill="#ffffff" stroke="#000000" points="1330.2783,-165.5 1330.2783,-183.5 1385.1846,-183.5 1385.1846,-165.5 1330.2783,-165.5"/>
<text text-anchor="middle" x="1357.7314" y="-171.5" font-family="Helvetica,sans-Serif" font-size="10.00" fill="#000000">utilities.h</text>
</a>
</g>
</g>
<!-- Node0&#45;&gt;Node22 -->
<g id="edge24" class="edge">
<title>Node0&#45;&gt;Node22</title>
<path fill="none" stroke="#191970" d="M788.2086,-228.9048C873.8552,-226.9087 1112.9504,-218.5782 1319.7948,-184.0752"/>
<polygon fill="#191970" stroke="#191970" points="1320.6554,-187.4794 1329.9307,-182.3589 1319.4866,-180.5777 1320.6554,-187.4794"/>
</g>
<!-- Node23 -->
<g id="node24" class="node">
<title>Node23</title>
<g id="a_node24"><a xlink:href="port__wrapper_8h.html" target="_top" xlink:title="port_wrapper.h">
<polygon fill="#ffffff" stroke="#000000" points="1403.3745,-165.5 1403.3745,-183.5 1486.0884,-183.5 1486.0884,-165.5 1403.3745,-165.5"/>
<text text-anchor="middle" x="1444.7314" y="-171.5" font-family="Helvetica,sans-Serif" font-size="10.00" fill="#000000">port_wrapper.h</text>
</a>
</g>
</g>
<!-- Node0&#45;&gt;Node23 -->
<g id="edge25" class="edge">
<title>Node0&#45;&gt;Node23</title>
<path fill="none" stroke="#191970" d="M788.0579,-228.4854C880.6306,-225.3066 1154.7966,-213.9851 1393.0762,-183.9253"/>
<polygon fill="#191970" stroke="#191970" points="1393.8443,-187.3558 1403.321,-182.6184 1392.9585,-180.4121 1393.8443,-187.3558"/>
</g>
<!-- Node25 -->
<g id="node26" class="node">
<title>Node25</title>
<g id="a_node26"><a xlink:href="osp_2logger_8h.html" target="_top" xlink:title="logger.h">
<polygon fill="#ffffff" stroke="#000000" points="1503.936,-165.5 1503.936,-183.5 1555.5269,-183.5 1555.5269,-165.5 1503.936,-165.5"/>
<text text-anchor="middle" x="1529.7314" y="-171.5" font-family="Helvetica,sans-Serif" font-size="10.00" fill="#000000">logger.h</text>
</a>
</g>
</g>
<!-- Node0&#45;&gt;Node25 -->
<g id="edge29" class="edge">
<title>Node0&#45;&gt;Node25</title>
<path fill="none" stroke="#191970" d="M788.0269,-228.3874C909.0879,-224.0837 1336.6119,-207.6578 1493.9036,-183.7368"/>
<polygon fill="#191970" stroke="#191970" points="1494.542,-187.1794 1503.8672,-182.1504 1493.4412,-180.2664 1494.542,-187.1794"/>
</g>
<!-- Node17 -->
<g id="node18" class="node">
<title>Node17</title>
<polygon fill="#ffffff" stroke="#bfbfbf" points="1062.9409,-110.5 1062.9409,-128.5 1114.522,-128.5 1114.522,-110.5 1062.9409,-110.5"/>
<text text-anchor="middle" x="1088.7314" y="-116.5" font-family="Helvetica,sans-Serif" font-size="10.00" fill="#000000">stddef.h</text>
</g>
<!-- Node16&#45;&gt;Node17 -->
<g id="edge17" class="edge">
<title>Node16&#45;&gt;Node17</title>
<path fill="none" stroke="#191970" d="M1117.117,-165.4179C1112.4206,-157.8207 1105.5786,-146.7527 1099.7886,-137.3866"/>
<polygon fill="#191970" stroke="#191970" points="1102.7032,-135.445 1094.4678,-128.7795 1096.749,-139.1258 1102.7032,-135.445"/>
</g>
<!-- Node16&#45;&gt;Node18 -->
<g id="edge18" class="edge">
<title>Node16&#45;&gt;Node18</title>
<path fill="none" stroke="#191970" d="M1125.1386,-165.4471C1130.7695,-145.0041 1145.9165,-94.0106 1166.7314,-55 1171.9941,-45.1369 1179.1553,-34.9895 1185.4619,-26.7873"/>
<polygon fill="#191970" stroke="#191970" points="1188.3616,-28.7639 1191.8396,-18.7562 1182.8798,-24.4108 1188.3616,-28.7639"/>
</g>
<!-- Node19&#45;&gt;Node18 -->
<g id="edge22" class="edge">
<title>Node19&#45;&gt;Node18</title>
<path fill="none" stroke="#191970" d="M1255.7396,-110.4982C1245.7308,-92.4496 1223.0393,-51.5306 1209.8154,-27.6843"/>
<polygon fill="#191970" stroke="#191970" points="1212.7029,-25.6741 1204.7923,-18.6261 1206.5812,-29.0689 1212.7029,-25.6741"/>
</g>
<!-- Node20 -->
<g id="node21" class="node">
<title>Node20</title>
<g id="a_node21"><a xlink:href="coeffs_8h.html" target="_top" xlink:title="coeffs.h">
<polygon fill="#ffffff" stroke="#000000" points="1246.3096,-55.5 1246.3096,-73.5 1297.1533,-73.5 1297.1533,-55.5 1246.3096,-55.5"/>
<text text-anchor="middle" x="1271.7314" y="-61.5" font-family="Helvetica,sans-Serif" font-size="10.00" fill="#000000">coeffs.h</text>
</a>
</g>
</g>
<!-- Node19&#45;&gt;Node20 -->
<g id="edge20" class="edge">
<title>Node19&#45;&gt;Node20</title>
<path fill="none" stroke="#191970" d="M1262.5479,-110.4179C1263.9882,-103.2164 1266.0522,-92.8962 1267.8588,-83.8632"/>
<polygon fill="#191970" stroke="#191970" points="1271.3463,-84.2717 1269.8756,-73.7795 1264.4823,-82.8988 1271.3463,-84.2717"/>
</g>
<!-- Node20&#45;&gt;Node18 -->
<g id="edge21" class="edge">
<title>Node20&#45;&gt;Node18</title>
<path fill="none" stroke="#191970" d="M1259.8421,-55.4179C1249.0679,-47.1876 1232.9613,-34.8839 1220.1317,-25.0836"/>
<polygon fill="#191970" stroke="#191970" points="1221.9505,-22.0685 1211.8791,-18.7795 1217.7012,-27.6313 1221.9505,-22.0685"/>
</g>
<!-- Node23&#45;&gt;Node19 -->
<g id="edge27" class="edge">
<title>Node23&#45;&gt;Node19</title>
<path fill="none" stroke="#191970" d="M1414.3476,-165.4179C1383.2254,-156.115 1334.6929,-141.608 1300.5231,-131.3943"/>
<polygon fill="#191970" stroke="#191970" points="1301.4381,-128.0148 1290.8546,-128.5042 1299.4334,-134.7216 1301.4381,-128.0148"/>
</g>
<!-- Node24 -->
<g id="node25" class="node">
<title>Node24</title>
<polygon fill="#ffffff" stroke="#bfbfbf" points="1411.7119,-110.5 1411.7119,-128.5 1477.751,-128.5 1477.751,-110.5 1411.7119,-110.5"/>
<text text-anchor="middle" x="1444.7314" y="-116.5" font-family="Helvetica,sans-Serif" font-size="10.00" fill="#000000">portaudio.h</text>
</g>
<!-- Node23&#45;&gt;Node24 -->
<g id="edge26" class="edge">
<title>Node23&#45;&gt;Node24</title>
<path fill="none" stroke="#191970" d="M1444.7314,-165.4179C1444.7314,-158.2164 1444.7314,-147.8962 1444.7314,-138.8632"/>
<polygon fill="#191970" stroke="#191970" points="1448.2315,-138.7794 1444.7314,-128.7795 1441.2315,-138.7795 1448.2315,-138.7794"/>
</g>
</g>
</svg>
        <g id="navigator" transform="translate(0 0)" fill="#404254">
                <rect fill="#f2f5e9" fill-opacity="0.5" stroke="#606060" stroke-width=".5" x="0" y="0" width="60" height="60"/>
                <use id="zoomplus" xlink:href="#zoomPlus" x="17" y="9" onmousedown="handleZoom(evt,'in')"/>
                <use id="zoomminus" xlink:href="#zoomMin" x="42" y="9" onmousedown="handleZoom(evt,'out')"/>
                <use id="reset" xlink:href="#resetDef" x="30" y="36" onmousedown="handleReset()"/>
                <g id="arrowUp" xlink:href="#dirArrow" transform="translate(30 24)" onmousedown="handlePan(0,-1)">
                  <use xlink:href="#rim" fill="#404040">
                        <set attributeName="fill" to="#808080" begin="arrowUp.mouseover" end="arrowUp.mouseout"/>
                  </use>
                  <path fill="none" stroke="white" stroke-width="1.5" d="M0,-3.0v7 M-2.5,-0.5L0,-3.0L2.5,-0.5"/>
                </g>
                <g id="arrowRight" xlink:href="#dirArrow" transform="rotate(90) translate(36 -43)" onmousedown="handlePan(1,0)">
                  <use xlink:href="#rim" fill="#404040">
                        <set attributeName="fill" to="#808080" begin="arrowRight.mouseover" end="arrowRight.mouseout"/>
                  </use>
                  <path fill="none" stroke="white" stroke-width="1.5" d="M0,-3.0v7 M-2.5,-0.5L0,-3.0L2.5,-0.5"/>
                </g>
                <g id="arrowDown" xlink:href="#dirArrow" transform="rotate(180) translate(-30 -48)" onmousedown="handlePan(0,1)">
                  <use xlink:href="#rim" fill="#404040">
                        <set attributeName="fill" to="#808080" begin="arrowDown.mouseover" end="arrowDown.mouseout"/>
                  </use>
                  <path fill="none" stroke="white" stroke-width="1.5" d="M0,-3.0v7 M-2.5,-0.5L0,-3.0L2.5,-0.5"/>
                </g>
                <g id="arrowLeft" xlink:href="#dirArrow" transform="rotate(270) translate(-36 17)" onmousedown="handlePan(-1,0)">
                  <use xlink:href="#rim" fill="#404040">
                        <set attributeName="fill" to="#808080" begin="arrowLeft.mouseover" end="arrowLeft.mouseout"/>
                  </use>
                  <path fill="none" stroke="white" stroke-width="1.5" d="M0,-3.0v7 M-2.5,-0.5L0,-3.0L2.5,-0.5"/>
                </g>
        </g>
        <svg viewBox="0 0 15 15" width="100%" height="30px" preserveAspectRatio="xMaxYMin meet">
         <g id="arrow_out" transform="scale(0.3 0.3)">
          <a xlink:href="main_8c__incl_org.svg" target="_base">
           <rect id="button" ry="5" rx="5" y="6" x="6" height="38" width="38"
                fill="#f2f5e9" fill-opacity="0.5" stroke="#606060" stroke-width="1.0"/>
           <path id="arrow"
             d="M 11.500037,31.436501 C 11.940474,20.09759 22.043105,11.32322 32.158766,21.979434 L 37.068811,17.246167 C 37.068811,17.246167 37.088388,32 37.088388,32 L 22.160133,31.978069 C 22.160133,31.978069 26.997745,27.140456 26.997745,27.140456 C 18.528582,18.264221 13.291696,25.230495 11.500037,31.436501 z"
             style="fill:#404040;"/>
          </a>
         </g>
        </svg>
</svg>
