<?xml version="1.0" encoding="UTF-8" standalone="no"?>
<!DOCTYPE svg PUBLIC "-//W3C//DTD SVG 1.1//EN"
 "http://www.w3.org/Graphics/SVG/1.1/DTD/svg11.dtd">
<!-- Generated by graphviz version 2.40.1 (20161225.0304)
 -->
<!-- Title: libosp/osp_tcp/osp_tcp.h Pages: 1 -->
<svg width="144pt" height="92pt"
 viewBox="0.00 0.00 144.36 92.00" xmlns="http://www.w3.org/2000/svg" xmlns:xlink="http://www.w3.org/1999/xlink">
<g id="graph0" class="graph" transform="scale(1 1) rotate(0) translate(4 88)">
<title>libosp/osp_tcp/osp_tcp.h</title>
<polygon fill="#ffffff" stroke="transparent" points="-4,4 -4,-88 140.3618,-88 140.3618,4 -4,4"/>
<!-- Node0 -->
<g id="node1" class="node">
<title>Node0</title>
<polygon fill="#bfbfbf" stroke="#000000" points="14.3745,-55.5 14.3745,-83.5 113.2065,-83.5 113.2065,-55.5 14.3745,-55.5"/>
<text text-anchor="start" x="22.3745" y="-71.5" font-family="Helvetica,sans-Serif" font-size="10.00" fill="#000000">libosp/osp_tcp/osp</text>
<text text-anchor="middle" x="63.7905" y="-61.5" font-family="Helvetica,sans-Serif" font-size="10.00" fill="#000000">_tcp.h</text>
</g>
<!-- Node1 -->
<g id="node2" class="node">
<title>Node1</title>
<polygon fill="#ffffff" stroke="#bfbfbf" points="0,-.5 0,-18.5 51.5811,-18.5 51.5811,-.5 0,-.5"/>
<text text-anchor="middle" x="25.7905" y="-6.5" font-family="Helvetica,sans-Serif" font-size="10.00" fill="#000000">stddef.h</text>
</g>
<!-- Node0&#45;&gt;Node1 -->
<g id="edge1" class="edge">
<title>Node0&#45;&gt;Node1</title>
<path fill="none" stroke="#191970" d="M54.7851,-55.2808C49.4422,-46.8448 42.6254,-36.0813 36.944,-27.1107"/>
<polygon fill="#191970" stroke="#191970" points="39.8513,-25.1597 31.5438,-18.5842 33.9375,-28.9051 39.8513,-25.1597"/>
</g>
<!-- Node2 -->
<g id="node3" class="node">
<title>Node2</title>
<g id="a_node3"><a xlink:href="constants_8h.html" target="_top" xlink:title="constants.h">
<polygon fill="#ffffff" stroke="#000000" points="69.2192,-.5 69.2192,-18.5 136.3618,-18.5 136.3618,-.5 69.2192,-.5"/>
<text text-anchor="middle" x="102.7905" y="-6.5" font-family="Helvetica,sans-Serif" font-size="10.00" fill="#000000">constants.h</text>
</a>
</g>
</g>
<!-- Node0&#45;&gt;Node2 -->
<g id="edge2" class="edge">
<title>Node0&#45;&gt;Node2</title>
<path fill="none" stroke="#191970" d="M73.033,-55.2808C78.5164,-46.8448 85.5127,-36.0813 91.3435,-27.1107"/>
<polygon fill="#191970" stroke="#191970" points="94.3704,-28.8761 96.8858,-18.5842 88.5013,-25.0612 94.3704,-28.8761"/>
</g>
</g>
</svg>
