<?xml version="1.0" encoding="UTF-8" standalone="no"?>
<!DOCTYPE svg PUBLIC "-//W3C//DTD SVG 1.1//EN"
 "http://www.w3.org/Graphics/SVG/1.1/DTD/svg11.dtd">
<!-- Generated by graphviz version 2.40.1 (20161225.0304)
 -->
<!-- Title: libosp/osp_process/osp_process.c Pages: 1 -->
<svg width="1052pt" height="202pt"
 viewBox="0.00 0.00 1052.42 202.00" xmlns="http://www.w3.org/2000/svg" xmlns:xlink="http://www.w3.org/1999/xlink">
<g id="graph0" class="graph" transform="scale(1 1) rotate(0) translate(4 198)">
<title>libosp/osp_process/osp_process.c</title>
<polygon fill="#ffffff" stroke="transparent" points="-4,4 -4,-198 1048.4233,-198 1048.4233,4 -4,4"/>
<!-- Node0 -->
<g id="node1" class="node">
<title>Node0</title>
<polygon fill="#bfbfbf" stroke="#000000" points="378.9287,-165.5 378.9287,-193.5 480.5342,-193.5 480.5342,-165.5 378.9287,-165.5"/>
<text text-anchor="start" x="386.9287" y="-181.5" font-family="Helvetica,sans-Serif" font-size="10.00" fill="#000000">libosp/osp_process</text>
<text text-anchor="middle" x="429.7314" y="-171.5" font-family="Helvetica,sans-Serif" font-size="10.00" fill="#000000">/osp_process.c</text>
</g>
<!-- Node1 -->
<g id="node2" class="node">
<title>Node1</title>
<polygon fill="#ffffff" stroke="#bfbfbf" points="0,-55.5 0,-73.5 45.4629,-73.5 45.4629,-55.5 0,-55.5"/>
<text text-anchor="middle" x="22.7314" y="-61.5" font-family="Helvetica,sans-Serif" font-size="10.00" fill="#000000">stdio.h</text>
</g>
<!-- Node0&#45;&gt;Node1 -->
<g id="edge1" class="edge">
<title>Node0&#45;&gt;Node1</title>
<path fill="none" stroke="#191970" d="M378.7459,-177.0182C273.1868,-171.357 38.522,-155.861 14.7314,-129 3.7747,-116.6292 7.9725,-97.3031 13.5715,-83.0285"/>
<polygon fill="#191970" stroke="#191970" points="16.8539,-84.2599 17.6994,-73.6988 10.4525,-81.4276 16.8539,-84.2599"/>
</g>
<!-- Node2 -->
<g id="node3" class="node">
<title>Node2</title>
<polygon fill="#ffffff" stroke="#bfbfbf" points="104.8892,-55.5 104.8892,-73.5 152.5737,-73.5 152.5737,-55.5 104.8892,-55.5"/>
<text text-anchor="middle" x="128.7314" y="-61.5" font-family="Helvetica,sans-Serif" font-size="10.00" fill="#000000">stdlib.h</text>
</g>
<!-- Node0&#45;&gt;Node2 -->
<g id="edge2" class="edge">
<title>Node0&#45;&gt;Node2</title>
<path fill="none" stroke="#191970" d="M378.7266,-172.5174C317.9632,-163.5631 220.6513,-147.0244 188.7314,-129 168.4392,-117.5415 151.0466,-96.8724 140.291,-82.0168"/>
<polygon fill="#191970" stroke="#191970" points="143.0627,-79.8718 134.4852,-73.6527 137.3122,-83.8634 143.0627,-79.8718"/>
</g>
<!-- Node3 -->
<g id="node4" class="node">
<title>Node3</title>
<polygon fill="#ffffff" stroke="#bfbfbf" points="93.335,-110.5 93.335,-128.5 142.1279,-128.5 142.1279,-110.5 93.335,-110.5"/>
<text text-anchor="middle" x="117.7314" y="-116.5" font-family="Helvetica,sans-Serif" font-size="10.00" fill="#000000">string.h</text>
</g>
<!-- Node0&#45;&gt;Node3 -->
<g id="edge3" class="edge">
<title>Node0&#45;&gt;Node3</title>
<path fill="none" stroke="#191970" d="M378.789,-171.0947C323.6257,-161.764 233.138,-145.7918 155.7314,-129 154.4978,-128.7324 153.2433,-128.4536 151.9775,-128.1668"/>
<polygon fill="#191970" stroke="#191970" points="152.7451,-124.7519 142.2083,-125.8589 151.1357,-131.5643 152.7451,-124.7519"/>
</g>
<!-- Node4 -->
<g id="node5" class="node">
<title>Node4</title>
<g id="a_node5"><a xlink:href="libosp_2osp__process_2logger_8h.html" target="_top" xlink:title="logger.h">
<polygon fill="#ffffff" stroke="#000000" points="23.936,-110.5 23.936,-128.5 75.5269,-128.5 75.5269,-110.5 23.936,-110.5"/>
<text text-anchor="middle" x="49.7314" y="-116.5" font-family="Helvetica,sans-Serif" font-size="10.00" fill="#000000">logger.h</text>
</a>
</g>
</g>
<!-- Node0&#45;&gt;Node4 -->
<g id="edge4" class="edge">
<title>Node0&#45;&gt;Node4</title>
<path fill="none" stroke="#191970" d="M378.8303,-173.9817C313.2093,-166.4407 195.4512,-151.4648 85.5677,-128.9618"/>
<polygon fill="#191970" stroke="#191970" points="86.144,-125.5069 75.6417,-126.9037 84.7228,-132.3611 86.144,-125.5069"/>
</g>
<!-- Node5 -->
<g id="node6" class="node">
<title>Node5</title>
<g id="a_node6"><a xlink:href="osp__process_8h.html" target="_top" xlink:title="osp_process.h">
<polygon fill="#ffffff" stroke="#000000" points="198.2119,-110.5 198.2119,-128.5 279.251,-128.5 279.251,-110.5 198.2119,-110.5"/>
<text text-anchor="middle" x="238.7314" y="-116.5" font-family="Helvetica,sans-Serif" font-size="10.00" fill="#000000">osp_process.h</text>
</a>
</g>
</g>
<!-- Node0&#45;&gt;Node5 -->
<g id="edge7" class="edge">
<title>Node0&#45;&gt;Node5</title>
<path fill="none" stroke="#191970" d="M384.9504,-165.4327C352.217,-155.1499 308.2844,-141.3491 277.1446,-131.567"/>
<polygon fill="#191970" stroke="#191970" points="278.1036,-128.1996 267.5143,-128.5417 276.0057,-134.8779 278.1036,-128.1996"/>
</g>
<!-- Node6 -->
<g id="node7" class="node">
<title>Node6</title>
<g id="a_node7"><a xlink:href="coeffs_8h.html" target="_top" xlink:title="coeffs.h">
<polygon fill="#ffffff" stroke="#000000" points="266.3096,-55.5 266.3096,-73.5 317.1533,-73.5 317.1533,-55.5 266.3096,-55.5"/>
<text text-anchor="middle" x="291.7314" y="-61.5" font-family="Helvetica,sans-Serif" font-size="10.00" fill="#000000">coeffs.h</text>
</a>
</g>
</g>
<!-- Node0&#45;&gt;Node6 -->
<g id="edge13" class="edge">
<title>Node0&#45;&gt;Node6</title>
<path fill="none" stroke="#191970" d="M386.9911,-165.481C366.897,-157.271 343.6885,-145.2704 326.7314,-129 313.3988,-116.2072 303.9394,-97.2078 298.2438,-83.1401"/>
<polygon fill="#191970" stroke="#191970" points="301.4228,-81.6508 294.6202,-73.5283 294.8728,-84.1202 301.4228,-81.6508"/>
</g>
<!-- Node8 -->
<g id="node9" class="node">
<title>Node8</title>
<g id="a_node9"><a xlink:href="utilities_8h.html" target="_top" xlink:title="utilities.h">
<polygon fill="#ffffff" stroke="#000000" points="335.2783,-110.5 335.2783,-128.5 390.1846,-128.5 390.1846,-110.5 335.2783,-110.5"/>
<text text-anchor="middle" x="362.7314" y="-116.5" font-family="Helvetica,sans-Serif" font-size="10.00" fill="#000000">utilities.h</text>
</a>
</g>
</g>
<!-- Node0&#45;&gt;Node8 -->
<g id="edge11" class="edge">
<title>Node0&#45;&gt;Node8</title>
<path fill="none" stroke="#191970" d="M413.8534,-165.2808C403.8381,-156.312 390.8853,-144.7124 380.5239,-135.4335"/>
<polygon fill="#191970" stroke="#191970" points="382.6599,-132.6481 372.8755,-128.5842 377.9901,-137.8628 382.6599,-132.6481"/>
</g>
<!-- Node9 -->
<g id="node10" class="node">
<title>Node9</title>
<g id="a_node10"><a xlink:href="filter_8h.html" target="_top" xlink:title="filter.h">
<polygon fill="#ffffff" stroke="#000000" points="408.3892,-110.5 408.3892,-128.5 451.0737,-128.5 451.0737,-110.5 408.3892,-110.5"/>
<text text-anchor="middle" x="429.7314" y="-116.5" font-family="Helvetica,sans-Serif" font-size="10.00" fill="#000000">filter.h</text>
</a>
</g>
</g>
<!-- Node0&#45;&gt;Node9 -->
<g id="edge12" class="edge">
<title>Node0&#45;&gt;Node9</title>
<path fill="none" stroke="#191970" d="M429.7314,-165.2808C429.7314,-157.3776 429.7314,-147.4316 429.7314,-138.8308"/>
<polygon fill="#191970" stroke="#191970" points="433.2315,-138.5842 429.7314,-128.5842 426.2315,-138.5842 433.2315,-138.5842"/>
</g>
<!-- Node10 -->
<g id="node11" class="node">
<title>Node10</title>
<g id="a_node11"><a xlink:href="afc_8h.html" target="_top" xlink:title="afc.h">
<polygon fill="#ffffff" stroke="#000000" points="468.8916,-110.5 468.8916,-128.5 506.5713,-128.5 506.5713,-110.5 468.8916,-110.5"/>
<text text-anchor="middle" x="487.7314" y="-116.5" font-family="Helvetica,sans-Serif" font-size="10.00" fill="#000000">afc.h</text>
</a>
</g>
</g>
<!-- Node0&#45;&gt;Node10 -->
<g id="edge14" class="edge">
<title>Node0&#45;&gt;Node10</title>
<path fill="none" stroke="#191970" d="M443.4766,-165.2808C451.9749,-156.4896 462.9164,-145.1708 471.7936,-135.9875"/>
<polygon fill="#191970" stroke="#191970" points="474.5163,-138.2067 478.9501,-128.5842 469.4833,-133.3415 474.5163,-138.2067"/>
</g>
<!-- Node11 -->
<g id="node12" class="node">
<title>Node11</title>
<g id="a_node12"><a xlink:href="delay__line_8h.html" target="_top" xlink:title="delay_line.h">
<polygon fill="#ffffff" stroke="#000000" points="525.0444,-110.5 525.0444,-128.5 594.4185,-128.5 594.4185,-110.5 525.0444,-110.5"/>
<text text-anchor="middle" x="559.7314" y="-116.5" font-family="Helvetica,sans-Serif" font-size="10.00" fill="#000000">delay_line.h</text>
</a>
</g>
</g>
<!-- Node0&#45;&gt;Node11 -->
<g id="edge15" class="edge">
<title>Node0&#45;&gt;Node11</title>
<path fill="none" stroke="#191970" d="M460.2107,-165.4327C481.4607,-155.625 509.6452,-142.6167 530.5948,-132.9477"/>
<polygon fill="#191970" stroke="#191970" points="532.3346,-135.9996 539.9475,-128.6311 529.4012,-129.6438 532.3346,-135.9996"/>
</g>
<!-- Node12 -->
<g id="node13" class="node">
<title>Node12</title>
<g id="a_node13"><a xlink:href="array__utilities_8h.html" target="_top" xlink:title="array_utilities.h">
<polygon fill="#ffffff" stroke="#000000" points="612.106,-110.5 612.106,-128.5 695.3569,-128.5 695.3569,-110.5 612.106,-110.5"/>
<text text-anchor="middle" x="653.7314" y="-116.5" font-family="Helvetica,sans-Serif" font-size="10.00" fill="#000000">array_utilities.h</text>
</a>
</g>
</g>
<!-- Node0&#45;&gt;Node12 -->
<g id="edge16" class="edge">
<title>Node0&#45;&gt;Node12</title>
<path fill="none" stroke="#191970" d="M480.5605,-165.8851C519.6145,-155.4242 572.9828,-141.1291 610.1105,-131.1842"/>
<polygon fill="#191970" stroke="#191970" points="611.3725,-134.4696 620.1263,-128.5014 609.5613,-127.708 611.3725,-134.4696"/>
</g>
<!-- Node13 -->
<g id="node14" class="node">
<title>Node13</title>
<g id="a_node14"><a xlink:href="peak__detect_8h.html" target="_top" xlink:title="peak_detect.h">
<polygon fill="#ffffff" stroke="#000000" points="775.3179,-110.5 775.3179,-128.5 854.145,-128.5 854.145,-110.5 775.3179,-110.5"/>
<text text-anchor="middle" x="814.7314" y="-116.5" font-family="Helvetica,sans-Serif" font-size="10.00" fill="#000000">peak_detect.h</text>
</a>
</g>
</g>
<!-- Node0&#45;&gt;Node13 -->
<g id="edge17" class="edge">
<title>Node0&#45;&gt;Node13</title>
<path fill="none" stroke="#191970" d="M480.6632,-172.6219C544.7587,-163.7987 658.4569,-147.5936 765.2282,-129.2031"/>
<polygon fill="#191970" stroke="#191970" points="765.9502,-132.6302 775.206,-127.4745 764.7552,-125.7329 765.9502,-132.6302"/>
</g>
<!-- Node15 -->
<g id="node16" class="node">
<title>Node15</title>
<g id="a_node16"><a xlink:href="wdrc_8h.html" target="_top" xlink:title="wdrc.h">
<polygon fill="#ffffff" stroke="#000000" points="872.0049,-110.5 872.0049,-128.5 917.458,-128.5 917.458,-110.5 872.0049,-110.5"/>
<text text-anchor="middle" x="894.7314" y="-116.5" font-family="Helvetica,sans-Serif" font-size="10.00" fill="#000000">wdrc.h</text>
</a>
</g>
</g>
<!-- Node0&#45;&gt;Node15 -->
<g id="edge19" class="edge">
<title>Node0&#45;&gt;Node15</title>
<path fill="none" stroke="#191970" d="M480.8461,-176.4043C560.4793,-170.9558 718.9898,-157.6039 861.951,-128.837"/>
<polygon fill="#191970" stroke="#191970" points="862.6824,-132.26 871.7797,-126.8296 861.2815,-125.4016 862.6824,-132.26"/>
</g>
<!-- Node16 -->
<g id="node17" class="node">
<title>Node16</title>
<g id="a_node17"><a xlink:href="wdrc__mpo__support_8h.html" target="_top" xlink:title="wdrc_mpo_support.h">
<polygon fill="#ffffff" stroke="#000000" points="935.0396,-110.5 935.0396,-128.5 1044.4233,-128.5 1044.4233,-110.5 935.0396,-110.5"/>
<text text-anchor="middle" x="989.7314" y="-116.5" font-family="Helvetica,sans-Serif" font-size="10.00" fill="#000000">wdrc_mpo_support.h</text>
</a>
</g>
</g>
<!-- Node0&#45;&gt;Node16 -->
<g id="edge21" class="edge">
<title>Node0&#45;&gt;Node16</title>
<path fill="none" stroke="#191970" d="M480.622,-175.1484C568.9512,-167.4162 756.5871,-150.2015 924.7525,-129.2059"/>
<polygon fill="#191970" stroke="#191970" points="925.2923,-132.6657 934.7781,-127.9467 924.4199,-125.7202 925.2923,-132.6657"/>
</g>
<!-- Node17 -->
<g id="node18" class="node">
<title>Node17</title>
<g id="a_node18"><a xlink:href="mpo_8h.html" target="_top" xlink:title="mpo.h">
<polygon fill="#ffffff" stroke="#000000" points="713.835,-110.5 713.835,-128.5 757.6279,-128.5 757.6279,-110.5 713.835,-110.5"/>
<text text-anchor="middle" x="735.7314" y="-116.5" font-family="Helvetica,sans-Serif" font-size="10.00" fill="#000000">mpo.h</text>
</a>
</g>
</g>
<!-- Node0&#45;&gt;Node17 -->
<g id="edge23" class="edge">
<title>Node0&#45;&gt;Node17</title>
<path fill="none" stroke="#191970" d="M480.5357,-171.9774C533.8957,-163.6735 620.3775,-149.0779 703.8985,-128.9769"/>
<polygon fill="#191970" stroke="#191970" points="704.9161,-132.3315 713.8031,-126.5635 703.2588,-125.5305 704.9161,-132.3315"/>
</g>
<!-- Node4&#45;&gt;Node1 -->
<g id="edge5" class="edge">
<title>Node4&#45;&gt;Node1</title>
<path fill="none" stroke="#191970" d="M45.2729,-110.4179C41.6211,-102.9789 36.3357,-92.2123 31.8006,-82.9742"/>
<polygon fill="#191970" stroke="#191970" points="34.8354,-81.2138 27.2868,-73.7795 28.5518,-84.2985 34.8354,-81.2138"/>
</g>
<!-- Node4&#45;&gt;Node2 -->
<g id="edge6" class="edge">
<title>Node4&#45;&gt;Node2</title>
<path fill="none" stroke="#191970" d="M62.7767,-110.4179C74.8983,-101.9788 93.1714,-89.257 107.4121,-79.3426"/>
<polygon fill="#191970" stroke="#191970" points="109.4597,-82.1818 115.6668,-73.5956 105.4601,-76.4369 109.4597,-82.1818"/>
</g>
<!-- Node5&#45;&gt;Node6 -->
<g id="edge8" class="edge">
<title>Node5&#45;&gt;Node6</title>
<path fill="none" stroke="#191970" d="M247.4833,-110.4179C255.1093,-102.5041 266.3644,-90.8243 275.6145,-81.2251"/>
<polygon fill="#191970" stroke="#191970" points="278.3707,-83.4089 282.7894,-73.7795 273.3302,-78.5516 278.3707,-83.4089"/>
</g>
<!-- Node7 -->
<g id="node8" class="node">
<title>Node7</title>
<g id="a_node8"><a xlink:href="constants_8h.html" target="_top" xlink:title="constants.h">
<polygon fill="#ffffff" stroke="#000000" points="231.1602,-.5 231.1602,-18.5 298.3027,-18.5 298.3027,-.5 231.1602,-.5"/>
<text text-anchor="middle" x="264.7314" y="-6.5" font-family="Helvetica,sans-Serif" font-size="10.00" fill="#000000">constants.h</text>
</a>
</g>
</g>
<!-- Node5&#45;&gt;Node7 -->
<g id="edge10" class="edge">
<title>Node5&#45;&gt;Node7</title>
<path fill="none" stroke="#191970" d="M240.8591,-110.4982C245.068,-92.6913 254.5389,-52.6225 260.2047,-28.6515"/>
<polygon fill="#191970" stroke="#191970" points="263.6802,-29.1631 262.5744,-18.6261 256.8679,-27.5529 263.6802,-29.1631"/>
</g>
<!-- Node6&#45;&gt;Node7 -->
<g id="edge9" class="edge">
<title>Node6&#45;&gt;Node7</title>
<path fill="none" stroke="#191970" d="M287.2729,-55.4179C283.6211,-47.9789 278.3357,-37.2123 273.8006,-27.9742"/>
<polygon fill="#191970" stroke="#191970" points="276.8354,-26.2138 269.2868,-18.7795 270.5518,-29.2985 276.8354,-26.2138"/>
</g>
<!-- Node14 -->
<g id="node15" class="node">
<title>Node14</title>
<polygon fill="#ffffff" stroke="#bfbfbf" points="828.9409,-55.5 828.9409,-73.5 880.522,-73.5 880.522,-55.5 828.9409,-55.5"/>
<text text-anchor="middle" x="854.7314" y="-61.5" font-family="Helvetica,sans-Serif" font-size="10.00" fill="#000000">stddef.h</text>
</g>
<!-- Node13&#45;&gt;Node14 -->
<g id="edge18" class="edge">
<title>Node13&#45;&gt;Node14</title>
<path fill="none" stroke="#191970" d="M821.3366,-110.4179C826.9194,-102.7415 835.0793,-91.5217 841.9355,-82.0945"/>
<polygon fill="#191970" stroke="#191970" points="844.9316,-83.9255 847.9827,-73.7795 839.2704,-79.8082 844.9316,-83.9255"/>
</g>
<!-- Node15&#45;&gt;Node14 -->
<g id="edge20" class="edge">
<title>Node15&#45;&gt;Node14</title>
<path fill="none" stroke="#191970" d="M888.1263,-110.4179C882.5435,-102.7415 874.3836,-91.5217 867.5274,-82.0945"/>
<polygon fill="#191970" stroke="#191970" points="870.1925,-79.8082 861.4801,-73.7795 864.5313,-83.9255 870.1925,-79.8082"/>
</g>
<!-- Node16&#45;&gt;Node14 -->
<g id="edge22" class="edge">
<title>Node16&#45;&gt;Node14</title>
<path fill="none" stroke="#191970" d="M967.4389,-110.4179C945.3569,-101.4215 911.3285,-87.5581 886.4372,-77.4172"/>
<polygon fill="#191970" stroke="#191970" points="887.6386,-74.1273 877.0571,-73.5956 884.9974,-80.61 887.6386,-74.1273"/>
</g>
<!-- Node17&#45;&gt;Node14 -->
<g id="edge24" class="edge">
<title>Node17&#45;&gt;Node14</title>
<path fill="none" stroke="#191970" d="M755.3819,-110.4179C774.5884,-101.5409 804.0477,-87.9253 825.9054,-77.823"/>
<polygon fill="#191970" stroke="#191970" points="827.4429,-80.9682 835.0518,-73.5956 824.506,-74.614 827.4429,-80.9682"/>
</g>
</g>
</svg>
