<?xml version="1.0" encoding="UTF-8" standalone="no"?>
<!DOCTYPE svg PUBLIC "-//W3C//DTD SVG 1.1//EN"
 "http://www.w3.org/Graphics/SVG/1.1/DTD/svg11.dtd">
<!-- Generated by graphviz version 2.40.1 (20161225.0304)
 -->
<!-- Title: libosp/osp_tcp/osp_tcp.c Pages: 1 -->
<svg width="266pt" height="147pt"
 viewBox="0.00 0.00 265.52 147.00" xmlns="http://www.w3.org/2000/svg" xmlns:xlink="http://www.w3.org/1999/xlink">
<g id="graph0" class="graph" transform="scale(1 1) rotate(0) translate(4 143)">
<title>libosp/osp_tcp/osp_tcp.c</title>
<polygon fill="#ffffff" stroke="transparent" points="-4,4 -4,-143 261.522,-143 261.522,4 -4,4"/>
<!-- Node0 -->
<g id="node1" class="node">
<title>Node0</title>
<polygon fill="#bfbfbf" stroke="#000000" points="84.3745,-110.5 84.3745,-138.5 183.2065,-138.5 183.2065,-110.5 84.3745,-110.5"/>
<text text-anchor="start" x="92.3745" y="-126.5" font-family="Helvetica,sans-Serif" font-size="10.00" fill="#000000">libosp/osp_tcp/osp</text>
<text text-anchor="middle" x="133.7905" y="-116.5" font-family="Helvetica,sans-Serif" font-size="10.00" fill="#000000">_tcp.c</text>
</g>
<!-- Node1 -->
<g id="node2" class="node">
<title>Node1</title>
<g id="a_node2"><a xlink:href="osp__tcp_8h.html" target="_top" xlink:title="osp_tcp.h">
<polygon fill="#ffffff" stroke="#000000" points="68.1084,-55.5 68.1084,-73.5 127.4727,-73.5 127.4727,-55.5 68.1084,-55.5"/>
<text text-anchor="middle" x="97.7905" y="-61.5" font-family="Helvetica,sans-Serif" font-size="10.00" fill="#000000">osp_tcp.h</text>
</a>
</g>
</g>
<!-- Node0&#45;&gt;Node1 -->
<g id="edge1" class="edge">
<title>Node0&#45;&gt;Node1</title>
<path fill="none" stroke="#191970" d="M125.259,-110.2808C120.2507,-101.9336 113.8751,-91.3076 108.5273,-82.3946"/>
<polygon fill="#191970" stroke="#191970" points="111.3873,-80.3584 103.241,-73.5842 105.3848,-83.9599 111.3873,-80.3584"/>
</g>
<!-- Node4 -->
<g id="node5" class="node">
<title>Node4</title>
<g id="a_node5"><a xlink:href="tcplib_8h.html" target="_top" xlink:title="tcplib.h">
<polygon fill="#ffffff" stroke="#000000" points="1.9482,-55.5 1.9482,-73.5 49.6328,-73.5 49.6328,-55.5 1.9482,-55.5"/>
<text text-anchor="middle" x="25.7905" y="-61.5" font-family="Helvetica,sans-Serif" font-size="10.00" fill="#000000">tcplib.h</text>
</a>
</g>
</g>
<!-- Node0&#45;&gt;Node4 -->
<g id="edge4" class="edge">
<title>Node0&#45;&gt;Node4</title>
<path fill="none" stroke="#191970" d="M108.4693,-110.4327C91.2149,-100.8468 68.4572,-88.2037 51.1868,-78.609"/>
<polygon fill="#191970" stroke="#191970" points="52.6678,-75.428 42.2264,-73.6311 49.2683,-81.5471 52.6678,-75.428"/>
</g>
<!-- Node5 -->
<g id="node6" class="node">
<title>Node5</title>
<polygon fill="#ffffff" stroke="#bfbfbf" points="145.9482,-55.5 145.9482,-73.5 193.6328,-73.5 193.6328,-55.5 145.9482,-55.5"/>
<text text-anchor="middle" x="169.7905" y="-61.5" font-family="Helvetica,sans-Serif" font-size="10.00" fill="#000000">stdlib.h</text>
</g>
<!-- Node0&#45;&gt;Node5 -->
<g id="edge6" class="edge">
<title>Node0&#45;&gt;Node5</title>
<path fill="none" stroke="#191970" d="M142.322,-110.2808C147.3304,-101.9336 153.7059,-91.3076 159.0538,-82.3946"/>
<polygon fill="#191970" stroke="#191970" points="162.1962,-83.9599 164.34,-73.5842 156.1938,-80.3584 162.1962,-83.9599"/>
</g>
<!-- Node6 -->
<g id="node7" class="node">
<title>Node6</title>
<polygon fill="#ffffff" stroke="#bfbfbf" points="212.0591,-55.5 212.0591,-73.5 257.522,-73.5 257.522,-55.5 212.0591,-55.5"/>
<text text-anchor="middle" x="234.7905" y="-61.5" font-family="Helvetica,sans-Serif" font-size="10.00" fill="#000000">stdio.h</text>
</g>
<!-- Node0&#45;&gt;Node6 -->
<g id="edge7" class="edge">
<title>Node0&#45;&gt;Node6</title>
<path fill="none" stroke="#191970" d="M157.4705,-110.4327C173.4573,-100.9356 194.4956,-88.4376 210.5904,-78.8763"/>
<polygon fill="#191970" stroke="#191970" points="212.6101,-81.7475 219.4199,-73.6311 209.0349,-75.7294 212.6101,-81.7475"/>
</g>
<!-- Node2 -->
<g id="node3" class="node">
<title>Node2</title>
<polygon fill="#ffffff" stroke="#bfbfbf" points="0,-.5 0,-18.5 51.5811,-18.5 51.5811,-.5 0,-.5"/>
<text text-anchor="middle" x="25.7905" y="-6.5" font-family="Helvetica,sans-Serif" font-size="10.00" fill="#000000">stddef.h</text>
</g>
<!-- Node1&#45;&gt;Node2 -->
<g id="edge2" class="edge">
<title>Node1&#45;&gt;Node2</title>
<path fill="none" stroke="#191970" d="M85.9012,-55.4179C75.127,-47.1876 59.0204,-34.8839 46.1908,-25.0836"/>
<polygon fill="#191970" stroke="#191970" points="48.0096,-22.0685 37.9382,-18.7795 43.7603,-27.6313 48.0096,-22.0685"/>
</g>
<!-- Node3 -->
<g id="node4" class="node">
<title>Node3</title>
<g id="a_node4"><a xlink:href="constants_8h.html" target="_top" xlink:title="constants.h">
<polygon fill="#ffffff" stroke="#000000" points="69.2192,-.5 69.2192,-18.5 136.3618,-18.5 136.3618,-.5 69.2192,-.5"/>
<text text-anchor="middle" x="102.7905" y="-6.5" font-family="Helvetica,sans-Serif" font-size="10.00" fill="#000000">constants.h</text>
</a>
</g>
</g>
<!-- Node1&#45;&gt;Node3 -->
<g id="edge3" class="edge">
<title>Node1&#45;&gt;Node3</title>
<path fill="none" stroke="#191970" d="M98.6162,-55.4179C99.2709,-48.2164 100.2091,-37.8962 101.0302,-28.8632"/>
<polygon fill="#191970" stroke="#191970" points="104.5271,-29.0553 101.9469,-18.7795 97.5559,-28.4215 104.5271,-29.0553"/>
</g>
<!-- Node4&#45;&gt;Node2 -->
<g id="edge5" class="edge">
<title>Node4&#45;&gt;Node2</title>
<path fill="none" stroke="#191970" d="M25.7905,-55.4179C25.7905,-48.2164 25.7905,-37.8962 25.7905,-28.8632"/>
<polygon fill="#191970" stroke="#191970" points="29.2906,-28.7794 25.7905,-18.7795 22.2906,-28.7795 29.2906,-28.7794"/>
</g>
</g>
</svg>
