<?xml version="1.0" encoding="UTF-8" standalone="no"?>
<!DOCTYPE svg PUBLIC "-//W3C//DTD SVG 1.1//EN"
 "http://www.w3.org/Graphics/SVG/1.1/DTD/svg11.dtd">
<!-- Generated by graphviz version 2.40.1 (20161225.0304)
 -->
<!-- Title: libosp/osp_process/osp_process.h Pages: 1 -->
<svg width="110pt" height="147pt"
 viewBox="0.00 0.00 110.22 147.00" xmlns="http://www.w3.org/2000/svg" xmlns:xlink="http://www.w3.org/1999/xlink">
<g id="graph0" class="graph" transform="scale(1 1) rotate(0) translate(4 143)">
<title>libosp/osp_process/osp_process.h</title>
<polygon fill="#ffffff" stroke="transparent" points="-4,4 -4,-143 106.2246,-143 106.2246,4 -4,4"/>
<!-- Node0 -->
<g id="node1" class="node">
<title>Node0</title>
<polygon fill="#bfbfbf" stroke="#000000" points=".6191,-110.5 .6191,-138.5 102.2246,-138.5 102.2246,-110.5 .6191,-110.5"/>
<text text-anchor="start" x="8.6191" y="-126.5" font-family="Helvetica,sans-Serif" font-size="10.00" fill="#000000">libosp/osp_process</text>
<text text-anchor="middle" x="51.4219" y="-116.5" font-family="Helvetica,sans-Serif" font-size="10.00" fill="#000000">/osp_process.h</text>
</g>
<!-- Node1 -->
<g id="node2" class="node">
<title>Node1</title>
<g id="a_node2"><a xlink:href="coeffs_8h.html" target="_top" xlink:title="coeffs.h">
<polygon fill="#ffffff" stroke="#000000" points="0,-55.5 0,-73.5 50.8438,-73.5 50.8438,-55.5 0,-55.5"/>
<text text-anchor="middle" x="25.4219" y="-61.5" font-family="Helvetica,sans-Serif" font-size="10.00" fill="#000000">coeffs.h</text>
</a>
</g>
</g>
<!-- Node0&#45;&gt;Node1 -->
<g id="edge1" class="edge">
<title>Node0&#45;&gt;Node1</title>
<path fill="none" stroke="#191970" d="M45.2602,-110.2808C41.7201,-102.1112 37.234,-91.7588 33.4237,-82.9658"/>
<polygon fill="#191970" stroke="#191970" points="36.5459,-81.3681 29.3584,-73.5842 30.123,-84.1514 36.5459,-81.3681"/>
</g>
<!-- Node2 -->
<g id="node3" class="node">
<title>Node2</title>
<g id="a_node3"><a xlink:href="constants_8h.html" target="_top" xlink:title="constants.h">
<polygon fill="#ffffff" stroke="#000000" points="17.8506,-.5 17.8506,-18.5 84.9932,-18.5 84.9932,-.5 17.8506,-.5"/>
<text text-anchor="middle" x="51.4219" y="-6.5" font-family="Helvetica,sans-Serif" font-size="10.00" fill="#000000">constants.h</text>
</a>
</g>
</g>
<!-- Node0&#45;&gt;Node2 -->
<g id="edge3" class="edge">
<title>Node0&#45;&gt;Node2</title>
<path fill="none" stroke="#191970" d="M54.7201,-110.4134C57.6077,-96.3893 61.1003,-74.2385 59.4219,-55 58.6551,-46.2109 57.0702,-36.5742 55.5119,-28.441"/>
<polygon fill="#191970" stroke="#191970" points="58.9126,-27.6007 53.4826,-18.5031 52.0541,-29.0012 58.9126,-27.6007"/>
</g>
<!-- Node1&#45;&gt;Node2 -->
<g id="edge2" class="edge">
<title>Node1&#45;&gt;Node2</title>
<path fill="none" stroke="#191970" d="M29.7152,-55.4179C33.2318,-47.9789 38.3215,-37.2123 42.6886,-27.9742"/>
<polygon fill="#191970" stroke="#191970" points="45.9256,-29.316 47.0352,-18.7795 39.5971,-26.3243 45.9256,-29.316"/>
</g>
</g>
</svg>
