<?xml version="1.0" encoding="UTF-8" standalone="no"?>
<!DOCTYPE svg PUBLIC "-//W3C//DTD SVG 1.1//EN"
 "http://www.w3.org/Graphics/SVG/1.1/DTD/svg11.dtd">
<!-- Generated by graphviz version 2.40.1 (20161225.0304)
 -->
<!-- Title: osp/port_wrapper.h Pages: 1 -->
<svg width="174pt" height="192pt"
 viewBox="0.00 0.00 173.54 192.00" xmlns="http://www.w3.org/2000/svg" xmlns:xlink="http://www.w3.org/1999/xlink">
<g id="graph0" class="graph" transform="scale(1 1) rotate(0) translate(4 188)">
<title>osp/port_wrapper.h</title>
<polygon fill="#ffffff" stroke="transparent" points="-4,4 -4,-188 169.5391,-188 169.5391,4 -4,4"/>
<!-- Node0 -->
<g id="node1" class="node">
<title>Node0</title>
<polygon fill="#bfbfbf" stroke="#000000" points="28.2119,-165.5 28.2119,-183.5 129.8271,-183.5 129.8271,-165.5 28.2119,-165.5"/>
<text text-anchor="middle" x="79.0195" y="-171.5" font-family="Helvetica,sans-Serif" font-size="10.00" fill="#000000">osp/port_wrapper.h</text>
</g>
<!-- Node1 -->
<g id="node2" class="node">
<title>Node1</title>
<polygon fill="#ffffff" stroke="#bfbfbf" points="0,-110.5 0,-128.5 66.0391,-128.5 66.0391,-110.5 0,-110.5"/>
<text text-anchor="middle" x="33.0195" y="-116.5" font-family="Helvetica,sans-Serif" font-size="10.00" fill="#000000">portaudio.h</text>
</g>
<!-- Node0&#45;&gt;Node1 -->
<g id="edge1" class="edge">
<title>Node0&#45;&gt;Node1</title>
<path fill="none" stroke="#191970" d="M71.4236,-165.4179C64.871,-157.5833 55.2313,-146.0575 47.2492,-136.5137"/>
<polygon fill="#191970" stroke="#191970" points="49.8809,-134.2048 40.7805,-128.7795 44.5113,-138.6957 49.8809,-134.2048"/>
</g>
<!-- Node2 -->
<g id="node3" class="node">
<title>Node2</title>
<g id="a_node3"><a xlink:href="osp__process_8h.html" target="_top" xlink:title="osp_process.h">
<polygon fill="#ffffff" stroke="#000000" points="84.5,-110.5 84.5,-128.5 165.5391,-128.5 165.5391,-110.5 84.5,-110.5"/>
<text text-anchor="middle" x="125.0195" y="-116.5" font-family="Helvetica,sans-Serif" font-size="10.00" fill="#000000">osp_process.h</text>
</a>
</g>
</g>
<!-- Node0&#45;&gt;Node2 -->
<g id="edge2" class="edge">
<title>Node0&#45;&gt;Node2</title>
<path fill="none" stroke="#191970" d="M86.6155,-165.4179C93.1681,-157.5833 102.8078,-146.0575 110.7899,-136.5137"/>
<polygon fill="#191970" stroke="#191970" points="113.5277,-138.6957 117.2585,-128.7795 108.1582,-134.2048 113.5277,-138.6957"/>
</g>
<!-- Node3 -->
<g id="node4" class="node">
<title>Node3</title>
<g id="a_node4"><a xlink:href="coeffs_8h.html" target="_top" xlink:title="coeffs.h">
<polygon fill="#ffffff" stroke="#000000" points="72.5977,-55.5 72.5977,-73.5 123.4414,-73.5 123.4414,-55.5 72.5977,-55.5"/>
<text text-anchor="middle" x="98.0195" y="-61.5" font-family="Helvetica,sans-Serif" font-size="10.00" fill="#000000">coeffs.h</text>
</a>
</g>
</g>
<!-- Node2&#45;&gt;Node3 -->
<g id="edge3" class="edge">
<title>Node2&#45;&gt;Node3</title>
<path fill="none" stroke="#191970" d="M120.561,-110.4179C116.9092,-102.9789 111.6238,-92.2123 107.0887,-82.9742"/>
<polygon fill="#191970" stroke="#191970" points="110.1235,-81.2138 102.5749,-73.7795 103.8398,-84.2985 110.1235,-81.2138"/>
</g>
<!-- Node4 -->
<g id="node5" class="node">
<title>Node4</title>
<g id="a_node5"><a xlink:href="constants_8h.html" target="_top" xlink:title="constants.h">
<polygon fill="#ffffff" stroke="#000000" points="90.4482,-.5 90.4482,-18.5 157.5908,-18.5 157.5908,-.5 90.4482,-.5"/>
<text text-anchor="middle" x="124.0195" y="-6.5" font-family="Helvetica,sans-Serif" font-size="10.00" fill="#000000">constants.h</text>
</a>
</g>
</g>
<!-- Node2&#45;&gt;Node4 -->
<g id="edge5" class="edge">
<title>Node2&#45;&gt;Node4</title>
<path fill="none" stroke="#191970" d="M127.1478,-110.3261C129.7878,-97.8295 133.7425,-74.749 132.0195,-55 131.2527,-46.2109 129.6679,-36.5742 128.1095,-28.441"/>
<polygon fill="#191970" stroke="#191970" points="131.5102,-27.6007 126.0803,-18.5031 124.6518,-29.0012 131.5102,-27.6007"/>
</g>
<!-- Node3&#45;&gt;Node4 -->
<g id="edge4" class="edge">
<title>Node3&#45;&gt;Node4</title>
<path fill="none" stroke="#191970" d="M102.3129,-55.4179C105.8295,-47.9789 110.9192,-37.2123 115.2863,-27.9742"/>
<polygon fill="#191970" stroke="#191970" points="118.5233,-29.316 119.6329,-18.7795 112.1948,-26.3243 118.5233,-29.316"/>
</g>
</g>
</svg>
