<?xml version="1.0" encoding="UTF-8" standalone="no"?>
<!DOCTYPE svg PUBLIC "-//W3C//DTD SVG 1.1//EN"
 "http://www.w3.org/Graphics/SVG/1.1/DTD/svg11.dtd">
<!-- Generated by graphviz version 2.40.1 (20161225.0304)
 -->
<!-- Title: osp/port_wrapper.c Pages: 1 -->
<svg width="588pt" height="247pt"
 viewBox="0.00 0.00 588.18 247.00" xmlns="http://www.w3.org/2000/svg" xmlns:xlink="http://www.w3.org/1999/xlink">
<g id="graph0" class="graph" transform="scale(1 1) rotate(0) translate(4 243)">
<title>osp/port_wrapper.c</title>
<polygon fill="#ffffff" stroke="transparent" points="-4,4 -4,-243 584.1846,-243 584.1846,4 -4,4"/>
<!-- Node0 -->
<g id="node1" class="node">
<title>Node0</title>
<polygon fill="#bfbfbf" stroke="#000000" points="221.2046,-220.5 221.2046,-238.5 322.2583,-238.5 322.2583,-220.5 221.2046,-220.5"/>
<text text-anchor="middle" x="271.7314" y="-226.5" font-family="Helvetica,sans-Serif" font-size="10.00" fill="#000000">osp/port_wrapper.c</text>
</g>
<!-- Node1 -->
<g id="node2" class="node">
<title>Node1</title>
<polygon fill="#ffffff" stroke="#bfbfbf" points="0,-165.5 0,-183.5 45.4629,-183.5 45.4629,-165.5 0,-165.5"/>
<text text-anchor="middle" x="22.7314" y="-171.5" font-family="Helvetica,sans-Serif" font-size="10.00" fill="#000000">stdio.h</text>
</g>
<!-- Node0&#45;&gt;Node1 -->
<g id="edge1" class="edge">
<title>Node0&#45;&gt;Node1</title>
<path fill="none" stroke="#191970" d="M222.7755,-220.4237C180.7777,-212.3697 118.4665,-199.7867 55.4491,-184.028"/>
<polygon fill="#191970" stroke="#191970" points="56.2938,-180.6315 45.7412,-181.5762 54.5797,-187.4184 56.2938,-180.6315"/>
</g>
<!-- Node2 -->
<g id="node3" class="node">
<title>Node2</title>
<polygon fill="#ffffff" stroke="#bfbfbf" points="63.8892,-165.5 63.8892,-183.5 111.5737,-183.5 111.5737,-165.5 63.8892,-165.5"/>
<text text-anchor="middle" x="87.7314" y="-171.5" font-family="Helvetica,sans-Serif" font-size="10.00" fill="#000000">stdlib.h</text>
</g>
<!-- Node0&#45;&gt;Node2 -->
<g id="edge2" class="edge">
<title>Node0&#45;&gt;Node2</title>
<path fill="none" stroke="#191970" d="M241.3476,-220.4179C208.4164,-210.5743 155.9921,-194.904 121.7165,-184.6586"/>
<polygon fill="#191970" stroke="#191970" points="122.2872,-181.1762 111.7036,-181.6656 120.2824,-187.883 122.2872,-181.1762"/>
</g>
<!-- Node3 -->
<g id="node4" class="node">
<title>Node3</title>
<polygon fill="#ffffff" stroke="#bfbfbf" points="129.335,-165.5 129.335,-183.5 178.1279,-183.5 178.1279,-165.5 129.335,-165.5"/>
<text text-anchor="middle" x="153.7314" y="-171.5" font-family="Helvetica,sans-Serif" font-size="10.00" fill="#000000">string.h</text>
</g>
<!-- Node0&#45;&gt;Node3 -->
<g id="edge3" class="edge">
<title>Node0&#45;&gt;Node3</title>
<path fill="none" stroke="#191970" d="M252.2461,-220.4179C233.201,-211.5409 203.9893,-197.9253 182.3152,-187.823"/>
<polygon fill="#191970" stroke="#191970" points="183.7881,-184.648 173.2457,-183.5956 180.8308,-190.9927 183.7881,-184.648"/>
</g>
<!-- Node4 -->
<g id="node5" class="node">
<title>Node4</title>
<g id="a_node5"><a xlink:href="port__wrapper_8h.html" target="_top" xlink:title="port_wrapper.h">
<polygon fill="#ffffff" stroke="#000000" points="196.3745,-165.5 196.3745,-183.5 279.0884,-183.5 279.0884,-165.5 196.3745,-165.5"/>
<text text-anchor="middle" x="237.7314" y="-171.5" font-family="Helvetica,sans-Serif" font-size="10.00" fill="#000000">port_wrapper.h</text>
</a>
</g>
</g>
<!-- Node0&#45;&gt;Node4 -->
<g id="edge4" class="edge">
<title>Node0&#45;&gt;Node4</title>
<path fill="none" stroke="#191970" d="M266.117,-220.4179C261.4206,-212.8207 254.5786,-201.7527 248.7886,-192.3866"/>
<polygon fill="#191970" stroke="#191970" points="251.7032,-190.445 243.4678,-183.7795 245.749,-194.1258 251.7032,-190.445"/>
</g>
<!-- Node7 -->
<g id="node8" class="node">
<title>Node7</title>
<g id="a_node8"><a xlink:href="coeffs_8h.html" target="_top" xlink:title="coeffs.h">
<polygon fill="#ffffff" stroke="#000000" points="265.3096,-55.5 265.3096,-73.5 316.1533,-73.5 316.1533,-55.5 265.3096,-55.5"/>
<text text-anchor="middle" x="290.7314" y="-61.5" font-family="Helvetica,sans-Serif" font-size="10.00" fill="#000000">coeffs.h</text>
</a>
</g>
</g>
<!-- Node0&#45;&gt;Node7 -->
<g id="edge11" class="edge">
<title>Node0&#45;&gt;Node7</title>
<path fill="none" stroke="#191970" d="M275.9199,-220.3224C279.8071,-211.2946 285.3418,-197.0125 287.7314,-184 294.142,-149.0928 293.3264,-107.4952 292.0785,-83.7237"/>
<polygon fill="#191970" stroke="#191970" points="295.5631,-83.362 291.4609,-73.5935 288.576,-83.788 295.5631,-83.362"/>
</g>
<!-- Node9 -->
<g id="node10" class="node">
<title>Node9</title>
<g id="a_node10"><a xlink:href="resample_8h.html" target="_top" xlink:title="resample.h">
<polygon fill="#ffffff" stroke="#000000" points="334.9976,-165.5 334.9976,-183.5 400.4653,-183.5 400.4653,-165.5 334.9976,-165.5"/>
<text text-anchor="middle" x="367.7314" y="-171.5" font-family="Helvetica,sans-Serif" font-size="10.00" fill="#000000">resample.h</text>
</a>
</g>
</g>
<!-- Node0&#45;&gt;Node9 -->
<g id="edge10" class="edge">
<title>Node0&#45;&gt;Node9</title>
<path fill="none" stroke="#191970" d="M287.5839,-220.4179C302.5919,-211.8195 325.3599,-198.7754 342.7986,-188.7844"/>
<polygon fill="#191970" stroke="#191970" points="344.9185,-191.6037 351.8554,-183.5956 341.4387,-185.5299 344.9185,-191.6037"/>
</g>
<!-- Node10 -->
<g id="node11" class="node">
<title>Node10</title>
<g id="a_node11"><a xlink:href="beam__forming_8h.html" target="_top" xlink:title="beam_forming.h">
<polygon fill="#ffffff" stroke="#000000" points="418.6011,-165.5 418.6011,-183.5 506.8618,-183.5 506.8618,-165.5 418.6011,-165.5"/>
<text text-anchor="middle" x="462.7314" y="-171.5" font-family="Helvetica,sans-Serif" font-size="10.00" fill="#000000">beam_forming.h</text>
</a>
</g>
</g>
<!-- Node0&#45;&gt;Node10 -->
<g id="edge12" class="edge">
<title>Node0&#45;&gt;Node10</title>
<path fill="none" stroke="#191970" d="M303.2712,-220.4179C335.5774,-211.115 385.9563,-196.608 421.4259,-186.3943"/>
<polygon fill="#191970" stroke="#191970" points="422.8213,-189.6348 431.4623,-183.5042 420.8842,-182.9081 422.8213,-189.6348"/>
</g>
<!-- Node11 -->
<g id="node12" class="node">
<title>Node11</title>
<g id="a_node12"><a xlink:href="utilities_8h.html" target="_top" xlink:title="utilities.h">
<polygon fill="#ffffff" stroke="#000000" points="525.2783,-165.5 525.2783,-183.5 580.1846,-183.5 580.1846,-165.5 525.2783,-165.5"/>
<text text-anchor="middle" x="552.7314" y="-171.5" font-family="Helvetica,sans-Serif" font-size="10.00" fill="#000000">utilities.h</text>
</a>
</g>
</g>
<!-- Node0&#45;&gt;Node11 -->
<g id="edge13" class="edge">
<title>Node0&#45;&gt;Node11</title>
<path fill="none" stroke="#191970" d="M322.4013,-221.0707C369.6686,-212.9784 442.3618,-199.951 514.6973,-184.1124"/>
<polygon fill="#191970" stroke="#191970" points="515.8893,-187.4335 524.8991,-181.859 514.3795,-180.5983 515.8893,-187.4335"/>
</g>
<!-- Node5 -->
<g id="node6" class="node">
<title>Node5</title>
<polygon fill="#ffffff" stroke="#bfbfbf" points="112.7119,-110.5 112.7119,-128.5 178.751,-128.5 178.751,-110.5 112.7119,-110.5"/>
<text text-anchor="middle" x="145.7314" y="-116.5" font-family="Helvetica,sans-Serif" font-size="10.00" fill="#000000">portaudio.h</text>
</g>
<!-- Node4&#45;&gt;Node5 -->
<g id="edge5" class="edge">
<title>Node4&#45;&gt;Node5</title>
<path fill="none" stroke="#191970" d="M222.5395,-165.4179C208.1569,-156.8195 186.3375,-143.7754 169.6254,-133.7844"/>
<polygon fill="#191970" stroke="#191970" points="171.3251,-130.7228 160.9459,-128.5956 167.7332,-136.731 171.3251,-130.7228"/>
</g>
<!-- Node6 -->
<g id="node7" class="node">
<title>Node6</title>
<g id="a_node7"><a xlink:href="osp__process_8h.html" target="_top" xlink:title="osp_process.h">
<polygon fill="#ffffff" stroke="#000000" points="197.2119,-110.5 197.2119,-128.5 278.251,-128.5 278.251,-110.5 197.2119,-110.5"/>
<text text-anchor="middle" x="237.7314" y="-116.5" font-family="Helvetica,sans-Serif" font-size="10.00" fill="#000000">osp_process.h</text>
</a>
</g>
</g>
<!-- Node4&#45;&gt;Node6 -->
<g id="edge6" class="edge">
<title>Node4&#45;&gt;Node6</title>
<path fill="none" stroke="#191970" d="M237.7314,-165.4179C237.7314,-158.2164 237.7314,-147.8962 237.7314,-138.8632"/>
<polygon fill="#191970" stroke="#191970" points="241.2315,-138.7794 237.7314,-128.7795 234.2315,-138.7795 241.2315,-138.7794"/>
</g>
<!-- Node6&#45;&gt;Node7 -->
<g id="edge7" class="edge">
<title>Node6&#45;&gt;Node7</title>
<path fill="none" stroke="#191970" d="M246.4833,-110.4179C254.1093,-102.5041 265.3644,-90.8243 274.6145,-81.2251"/>
<polygon fill="#191970" stroke="#191970" points="277.3707,-83.4089 281.7894,-73.7795 272.3302,-78.5516 277.3707,-83.4089"/>
</g>
<!-- Node8 -->
<g id="node9" class="node">
<title>Node8</title>
<g id="a_node9"><a xlink:href="constants_8h.html" target="_top" xlink:title="constants.h">
<polygon fill="#ffffff" stroke="#000000" points="230.1602,-.5 230.1602,-18.5 297.3027,-18.5 297.3027,-.5 230.1602,-.5"/>
<text text-anchor="middle" x="263.7314" y="-6.5" font-family="Helvetica,sans-Serif" font-size="10.00" fill="#000000">constants.h</text>
</a>
</g>
</g>
<!-- Node6&#45;&gt;Node8 -->
<g id="edge9" class="edge">
<title>Node6&#45;&gt;Node8</title>
<path fill="none" stroke="#191970" d="M239.8591,-110.4982C244.068,-92.6913 253.5389,-52.6225 259.2047,-28.6515"/>
<polygon fill="#191970" stroke="#191970" points="262.6802,-29.1631 261.5744,-18.6261 255.8679,-27.5529 262.6802,-29.1631"/>
</g>
<!-- Node7&#45;&gt;Node8 -->
<g id="edge8" class="edge">
<title>Node7&#45;&gt;Node8</title>
<path fill="none" stroke="#191970" d="M286.2729,-55.4179C282.6211,-47.9789 277.3357,-37.2123 272.8006,-27.9742"/>
<polygon fill="#191970" stroke="#191970" points="275.8354,-26.2138 268.2868,-18.7795 269.5518,-29.2985 275.8354,-26.2138"/>
</g>
</g>
</svg>
